%TF.GenerationSoftware,KiCad,Pcbnew,9.0.4*%
%TF.CreationDate,2026-07-17T01:27:40-04:00*%
%TF.ProjectId,wearable_revB,77656172-6162-46c6-955f-726576422e6b,rev?*%
%TF.SameCoordinates,Original*%
%TF.FileFunction,Legend,Top*%
%TF.FilePolarity,Positive*%
%FSLAX46Y46*%
G04 Gerber Fmt 4.6, Leading zero omitted, Abs format (unit mm)*
G04 Created by KiCad (PCBNEW 9.0.4) date 2026-07-17 01:27:40*
%MOMM*%
%LPD*%
G01*
G04 APERTURE LIST*
%ADD10C,0.150000*%
%ADD11C,0.100000*%
%ADD12C,0.120000*%
%ADD13C,0.127000*%
%ADD14C,0.250000*%
G04 APERTURE END LIST*
D10*
X166666667Y-66407200D02*
X166809524Y-66454819D01*
X166809524Y-66454819D02*
X167047619Y-66454819D01*
X167047619Y-66454819D02*
X167142857Y-66407200D01*
X167142857Y-66407200D02*
X167190476Y-66359580D01*
X167190476Y-66359580D02*
X167238095Y-66264342D01*
X167238095Y-66264342D02*
X167238095Y-66169104D01*
X167238095Y-66169104D02*
X167190476Y-66073866D01*
X167190476Y-66073866D02*
X167142857Y-66026247D01*
X167142857Y-66026247D02*
X167047619Y-65978628D01*
X167047619Y-65978628D02*
X166857143Y-65931009D01*
X166857143Y-65931009D02*
X166761905Y-65883390D01*
X166761905Y-65883390D02*
X166714286Y-65835771D01*
X166714286Y-65835771D02*
X166666667Y-65740533D01*
X166666667Y-65740533D02*
X166666667Y-65645295D01*
X166666667Y-65645295D02*
X166714286Y-65550057D01*
X166714286Y-65550057D02*
X166761905Y-65502438D01*
X166761905Y-65502438D02*
X166857143Y-65454819D01*
X166857143Y-65454819D02*
X167095238Y-65454819D01*
X167095238Y-65454819D02*
X167238095Y-65502438D01*
X167571429Y-65454819D02*
X167809524Y-66454819D01*
X167809524Y-66454819D02*
X168000000Y-65740533D01*
X168000000Y-65740533D02*
X168190476Y-66454819D01*
X168190476Y-66454819D02*
X168428572Y-65454819D01*
X169333333Y-66454819D02*
X168761905Y-66454819D01*
X169047619Y-66454819D02*
X169047619Y-65454819D01*
X169047619Y-65454819D02*
X168952381Y-65597676D01*
X168952381Y-65597676D02*
X168857143Y-65692914D01*
X168857143Y-65692914D02*
X168761905Y-65740533D01*
X172166667Y-66407200D02*
X172309524Y-66454819D01*
X172309524Y-66454819D02*
X172547619Y-66454819D01*
X172547619Y-66454819D02*
X172642857Y-66407200D01*
X172642857Y-66407200D02*
X172690476Y-66359580D01*
X172690476Y-66359580D02*
X172738095Y-66264342D01*
X172738095Y-66264342D02*
X172738095Y-66169104D01*
X172738095Y-66169104D02*
X172690476Y-66073866D01*
X172690476Y-66073866D02*
X172642857Y-66026247D01*
X172642857Y-66026247D02*
X172547619Y-65978628D01*
X172547619Y-65978628D02*
X172357143Y-65931009D01*
X172357143Y-65931009D02*
X172261905Y-65883390D01*
X172261905Y-65883390D02*
X172214286Y-65835771D01*
X172214286Y-65835771D02*
X172166667Y-65740533D01*
X172166667Y-65740533D02*
X172166667Y-65645295D01*
X172166667Y-65645295D02*
X172214286Y-65550057D01*
X172214286Y-65550057D02*
X172261905Y-65502438D01*
X172261905Y-65502438D02*
X172357143Y-65454819D01*
X172357143Y-65454819D02*
X172595238Y-65454819D01*
X172595238Y-65454819D02*
X172738095Y-65502438D01*
X173071429Y-65454819D02*
X173309524Y-66454819D01*
X173309524Y-66454819D02*
X173500000Y-65740533D01*
X173500000Y-65740533D02*
X173690476Y-66454819D01*
X173690476Y-66454819D02*
X173928572Y-65454819D01*
X174261905Y-65550057D02*
X174309524Y-65502438D01*
X174309524Y-65502438D02*
X174404762Y-65454819D01*
X174404762Y-65454819D02*
X174642857Y-65454819D01*
X174642857Y-65454819D02*
X174738095Y-65502438D01*
X174738095Y-65502438D02*
X174785714Y-65550057D01*
X174785714Y-65550057D02*
X174833333Y-65645295D01*
X174833333Y-65645295D02*
X174833333Y-65740533D01*
X174833333Y-65740533D02*
X174785714Y-65883390D01*
X174785714Y-65883390D02*
X174214286Y-66454819D01*
X174214286Y-66454819D02*
X174833333Y-66454819D01*
X146320595Y-85134819D02*
X146320595Y-85944342D01*
X146320595Y-85944342D02*
X146368214Y-86039580D01*
X146368214Y-86039580D02*
X146415833Y-86087200D01*
X146415833Y-86087200D02*
X146511071Y-86134819D01*
X146511071Y-86134819D02*
X146701547Y-86134819D01*
X146701547Y-86134819D02*
X146796785Y-86087200D01*
X146796785Y-86087200D02*
X146844404Y-86039580D01*
X146844404Y-86039580D02*
X146892023Y-85944342D01*
X146892023Y-85944342D02*
X146892023Y-85134819D01*
X147320595Y-85230057D02*
X147368214Y-85182438D01*
X147368214Y-85182438D02*
X147463452Y-85134819D01*
X147463452Y-85134819D02*
X147701547Y-85134819D01*
X147701547Y-85134819D02*
X147796785Y-85182438D01*
X147796785Y-85182438D02*
X147844404Y-85230057D01*
X147844404Y-85230057D02*
X147892023Y-85325295D01*
X147892023Y-85325295D02*
X147892023Y-85420533D01*
X147892023Y-85420533D02*
X147844404Y-85563390D01*
X147844404Y-85563390D02*
X147272976Y-86134819D01*
X147272976Y-86134819D02*
X147892023Y-86134819D01*
D11*
X139991465Y-99848903D02*
X139991465Y-99086999D01*
X140372418Y-99467951D02*
X139610513Y-99467951D01*
X136710128Y-99129268D02*
X136757747Y-98986411D01*
X136757747Y-98986411D02*
X136805366Y-98938792D01*
X136805366Y-98938792D02*
X136900604Y-98891173D01*
X136900604Y-98891173D02*
X137043461Y-98891173D01*
X137043461Y-98891173D02*
X137138699Y-98938792D01*
X137138699Y-98938792D02*
X137186319Y-98986411D01*
X137186319Y-98986411D02*
X137233938Y-99081649D01*
X137233938Y-99081649D02*
X137233938Y-99462601D01*
X137233938Y-99462601D02*
X136233938Y-99462601D01*
X136233938Y-99462601D02*
X136233938Y-99129268D01*
X136233938Y-99129268D02*
X136281557Y-99034030D01*
X136281557Y-99034030D02*
X136329176Y-98986411D01*
X136329176Y-98986411D02*
X136424414Y-98938792D01*
X136424414Y-98938792D02*
X136519652Y-98938792D01*
X136519652Y-98938792D02*
X136614890Y-98986411D01*
X136614890Y-98986411D02*
X136662509Y-99034030D01*
X136662509Y-99034030D02*
X136710128Y-99129268D01*
X136710128Y-99129268D02*
X136710128Y-99462601D01*
X137233938Y-98034030D02*
X136710128Y-98034030D01*
X136710128Y-98034030D02*
X136614890Y-98081649D01*
X136614890Y-98081649D02*
X136567271Y-98176887D01*
X136567271Y-98176887D02*
X136567271Y-98367363D01*
X136567271Y-98367363D02*
X136614890Y-98462601D01*
X137186319Y-98034030D02*
X137233938Y-98129268D01*
X137233938Y-98129268D02*
X137233938Y-98367363D01*
X137233938Y-98367363D02*
X137186319Y-98462601D01*
X137186319Y-98462601D02*
X137091080Y-98510220D01*
X137091080Y-98510220D02*
X136995842Y-98510220D01*
X136995842Y-98510220D02*
X136900604Y-98462601D01*
X136900604Y-98462601D02*
X136852985Y-98367363D01*
X136852985Y-98367363D02*
X136852985Y-98129268D01*
X136852985Y-98129268D02*
X136805366Y-98034030D01*
X136567271Y-97700696D02*
X136567271Y-97319744D01*
X136233938Y-97557839D02*
X137091080Y-97557839D01*
X137091080Y-97557839D02*
X137186319Y-97510220D01*
X137186319Y-97510220D02*
X137233938Y-97414982D01*
X137233938Y-97414982D02*
X137233938Y-97319744D01*
X139990301Y-97849851D02*
X139990301Y-97087947D01*
D10*
X139496666Y-64919819D02*
X139496666Y-65634104D01*
X139496666Y-65634104D02*
X139449047Y-65776961D01*
X139449047Y-65776961D02*
X139353809Y-65872200D01*
X139353809Y-65872200D02*
X139210952Y-65919819D01*
X139210952Y-65919819D02*
X139115714Y-65919819D01*
X140496666Y-65919819D02*
X139925238Y-65919819D01*
X140210952Y-65919819D02*
X140210952Y-64919819D01*
X140210952Y-64919819D02*
X140115714Y-65062676D01*
X140115714Y-65062676D02*
X140020476Y-65157914D01*
X140020476Y-65157914D02*
X139925238Y-65205533D01*
X172738095Y-99954819D02*
X172738095Y-100764342D01*
X172738095Y-100764342D02*
X172785714Y-100859580D01*
X172785714Y-100859580D02*
X172833333Y-100907200D01*
X172833333Y-100907200D02*
X172928571Y-100954819D01*
X172928571Y-100954819D02*
X173119047Y-100954819D01*
X173119047Y-100954819D02*
X173214285Y-100907200D01*
X173214285Y-100907200D02*
X173261904Y-100859580D01*
X173261904Y-100859580D02*
X173309523Y-100764342D01*
X173309523Y-100764342D02*
X173309523Y-99954819D01*
X173690476Y-99954819D02*
X174357142Y-99954819D01*
X174357142Y-99954819D02*
X173928571Y-100954819D01*
X174238095Y-89954819D02*
X174238095Y-90764342D01*
X174238095Y-90764342D02*
X174285714Y-90859580D01*
X174285714Y-90859580D02*
X174333333Y-90907200D01*
X174333333Y-90907200D02*
X174428571Y-90954819D01*
X174428571Y-90954819D02*
X174619047Y-90954819D01*
X174619047Y-90954819D02*
X174714285Y-90907200D01*
X174714285Y-90907200D02*
X174761904Y-90859580D01*
X174761904Y-90859580D02*
X174809523Y-90764342D01*
X174809523Y-90764342D02*
X174809523Y-89954819D01*
X175714285Y-89954819D02*
X175523809Y-89954819D01*
X175523809Y-89954819D02*
X175428571Y-90002438D01*
X175428571Y-90002438D02*
X175380952Y-90050057D01*
X175380952Y-90050057D02*
X175285714Y-90192914D01*
X175285714Y-90192914D02*
X175238095Y-90383390D01*
X175238095Y-90383390D02*
X175238095Y-90764342D01*
X175238095Y-90764342D02*
X175285714Y-90859580D01*
X175285714Y-90859580D02*
X175333333Y-90907200D01*
X175333333Y-90907200D02*
X175428571Y-90954819D01*
X175428571Y-90954819D02*
X175619047Y-90954819D01*
X175619047Y-90954819D02*
X175714285Y-90907200D01*
X175714285Y-90907200D02*
X175761904Y-90859580D01*
X175761904Y-90859580D02*
X175809523Y-90764342D01*
X175809523Y-90764342D02*
X175809523Y-90526247D01*
X175809523Y-90526247D02*
X175761904Y-90431009D01*
X175761904Y-90431009D02*
X175714285Y-90383390D01*
X175714285Y-90383390D02*
X175619047Y-90335771D01*
X175619047Y-90335771D02*
X175428571Y-90335771D01*
X175428571Y-90335771D02*
X175333333Y-90383390D01*
X175333333Y-90383390D02*
X175285714Y-90431009D01*
X175285714Y-90431009D02*
X175238095Y-90526247D01*
X139238095Y-89054819D02*
X139238095Y-89864342D01*
X139238095Y-89864342D02*
X139285714Y-89959580D01*
X139285714Y-89959580D02*
X139333333Y-90007200D01*
X139333333Y-90007200D02*
X139428571Y-90054819D01*
X139428571Y-90054819D02*
X139619047Y-90054819D01*
X139619047Y-90054819D02*
X139714285Y-90007200D01*
X139714285Y-90007200D02*
X139761904Y-89959580D01*
X139761904Y-89959580D02*
X139809523Y-89864342D01*
X139809523Y-89864342D02*
X139809523Y-89054819D01*
X140714285Y-89388152D02*
X140714285Y-90054819D01*
X140476190Y-89007200D02*
X140238095Y-89721485D01*
X140238095Y-89721485D02*
X140857142Y-89721485D01*
X152038095Y-87379819D02*
X152038095Y-88189342D01*
X152038095Y-88189342D02*
X152085714Y-88284580D01*
X152085714Y-88284580D02*
X152133333Y-88332200D01*
X152133333Y-88332200D02*
X152228571Y-88379819D01*
X152228571Y-88379819D02*
X152419047Y-88379819D01*
X152419047Y-88379819D02*
X152514285Y-88332200D01*
X152514285Y-88332200D02*
X152561904Y-88284580D01*
X152561904Y-88284580D02*
X152609523Y-88189342D01*
X152609523Y-88189342D02*
X152609523Y-87379819D01*
X153609523Y-88379819D02*
X153038095Y-88379819D01*
X153323809Y-88379819D02*
X153323809Y-87379819D01*
X153323809Y-87379819D02*
X153228571Y-87522676D01*
X153228571Y-87522676D02*
X153133333Y-87617914D01*
X153133333Y-87617914D02*
X153038095Y-87665533D01*
X138996667Y-86887200D02*
X139139524Y-86934819D01*
X139139524Y-86934819D02*
X139377619Y-86934819D01*
X139377619Y-86934819D02*
X139472857Y-86887200D01*
X139472857Y-86887200D02*
X139520476Y-86839580D01*
X139520476Y-86839580D02*
X139568095Y-86744342D01*
X139568095Y-86744342D02*
X139568095Y-86649104D01*
X139568095Y-86649104D02*
X139520476Y-86553866D01*
X139520476Y-86553866D02*
X139472857Y-86506247D01*
X139472857Y-86506247D02*
X139377619Y-86458628D01*
X139377619Y-86458628D02*
X139187143Y-86411009D01*
X139187143Y-86411009D02*
X139091905Y-86363390D01*
X139091905Y-86363390D02*
X139044286Y-86315771D01*
X139044286Y-86315771D02*
X138996667Y-86220533D01*
X138996667Y-86220533D02*
X138996667Y-86125295D01*
X138996667Y-86125295D02*
X139044286Y-86030057D01*
X139044286Y-86030057D02*
X139091905Y-85982438D01*
X139091905Y-85982438D02*
X139187143Y-85934819D01*
X139187143Y-85934819D02*
X139425238Y-85934819D01*
X139425238Y-85934819D02*
X139568095Y-85982438D01*
X139901429Y-85934819D02*
X140139524Y-86934819D01*
X140139524Y-86934819D02*
X140330000Y-86220533D01*
X140330000Y-86220533D02*
X140520476Y-86934819D01*
X140520476Y-86934819D02*
X140758572Y-85934819D01*
X141044286Y-85934819D02*
X141663333Y-85934819D01*
X141663333Y-85934819D02*
X141330000Y-86315771D01*
X141330000Y-86315771D02*
X141472857Y-86315771D01*
X141472857Y-86315771D02*
X141568095Y-86363390D01*
X141568095Y-86363390D02*
X141615714Y-86411009D01*
X141615714Y-86411009D02*
X141663333Y-86506247D01*
X141663333Y-86506247D02*
X141663333Y-86744342D01*
X141663333Y-86744342D02*
X141615714Y-86839580D01*
X141615714Y-86839580D02*
X141568095Y-86887200D01*
X141568095Y-86887200D02*
X141472857Y-86934819D01*
X141472857Y-86934819D02*
X141187143Y-86934819D01*
X141187143Y-86934819D02*
X141091905Y-86887200D01*
X141091905Y-86887200D02*
X141044286Y-86839580D01*
X112877142Y-98554819D02*
X112543809Y-98078628D01*
X112305714Y-98554819D02*
X112305714Y-97554819D01*
X112305714Y-97554819D02*
X112686666Y-97554819D01*
X112686666Y-97554819D02*
X112781904Y-97602438D01*
X112781904Y-97602438D02*
X112829523Y-97650057D01*
X112829523Y-97650057D02*
X112877142Y-97745295D01*
X112877142Y-97745295D02*
X112877142Y-97888152D01*
X112877142Y-97888152D02*
X112829523Y-97983390D01*
X112829523Y-97983390D02*
X112781904Y-98031009D01*
X112781904Y-98031009D02*
X112686666Y-98078628D01*
X112686666Y-98078628D02*
X112305714Y-98078628D01*
X113829523Y-98554819D02*
X113258095Y-98554819D01*
X113543809Y-98554819D02*
X113543809Y-97554819D01*
X113543809Y-97554819D02*
X113448571Y-97697676D01*
X113448571Y-97697676D02*
X113353333Y-97792914D01*
X113353333Y-97792914D02*
X113258095Y-97840533D01*
X114210476Y-97650057D02*
X114258095Y-97602438D01*
X114258095Y-97602438D02*
X114353333Y-97554819D01*
X114353333Y-97554819D02*
X114591428Y-97554819D01*
X114591428Y-97554819D02*
X114686666Y-97602438D01*
X114686666Y-97602438D02*
X114734285Y-97650057D01*
X114734285Y-97650057D02*
X114781904Y-97745295D01*
X114781904Y-97745295D02*
X114781904Y-97840533D01*
X114781904Y-97840533D02*
X114734285Y-97983390D01*
X114734285Y-97983390D02*
X114162857Y-98554819D01*
X114162857Y-98554819D02*
X114781904Y-98554819D01*
X112877142Y-96044819D02*
X112543809Y-95568628D01*
X112305714Y-96044819D02*
X112305714Y-95044819D01*
X112305714Y-95044819D02*
X112686666Y-95044819D01*
X112686666Y-95044819D02*
X112781904Y-95092438D01*
X112781904Y-95092438D02*
X112829523Y-95140057D01*
X112829523Y-95140057D02*
X112877142Y-95235295D01*
X112877142Y-95235295D02*
X112877142Y-95378152D01*
X112877142Y-95378152D02*
X112829523Y-95473390D01*
X112829523Y-95473390D02*
X112781904Y-95521009D01*
X112781904Y-95521009D02*
X112686666Y-95568628D01*
X112686666Y-95568628D02*
X112305714Y-95568628D01*
X113829523Y-96044819D02*
X113258095Y-96044819D01*
X113543809Y-96044819D02*
X113543809Y-95044819D01*
X113543809Y-95044819D02*
X113448571Y-95187676D01*
X113448571Y-95187676D02*
X113353333Y-95282914D01*
X113353333Y-95282914D02*
X113258095Y-95330533D01*
X114781904Y-96044819D02*
X114210476Y-96044819D01*
X114496190Y-96044819D02*
X114496190Y-95044819D01*
X114496190Y-95044819D02*
X114400952Y-95187676D01*
X114400952Y-95187676D02*
X114305714Y-95282914D01*
X114305714Y-95282914D02*
X114210476Y-95330533D01*
X112877142Y-93534819D02*
X112543809Y-93058628D01*
X112305714Y-93534819D02*
X112305714Y-92534819D01*
X112305714Y-92534819D02*
X112686666Y-92534819D01*
X112686666Y-92534819D02*
X112781904Y-92582438D01*
X112781904Y-92582438D02*
X112829523Y-92630057D01*
X112829523Y-92630057D02*
X112877142Y-92725295D01*
X112877142Y-92725295D02*
X112877142Y-92868152D01*
X112877142Y-92868152D02*
X112829523Y-92963390D01*
X112829523Y-92963390D02*
X112781904Y-93011009D01*
X112781904Y-93011009D02*
X112686666Y-93058628D01*
X112686666Y-93058628D02*
X112305714Y-93058628D01*
X113829523Y-93534819D02*
X113258095Y-93534819D01*
X113543809Y-93534819D02*
X113543809Y-92534819D01*
X113543809Y-92534819D02*
X113448571Y-92677676D01*
X113448571Y-92677676D02*
X113353333Y-92772914D01*
X113353333Y-92772914D02*
X113258095Y-92820533D01*
X114448571Y-92534819D02*
X114543809Y-92534819D01*
X114543809Y-92534819D02*
X114639047Y-92582438D01*
X114639047Y-92582438D02*
X114686666Y-92630057D01*
X114686666Y-92630057D02*
X114734285Y-92725295D01*
X114734285Y-92725295D02*
X114781904Y-92915771D01*
X114781904Y-92915771D02*
X114781904Y-93153866D01*
X114781904Y-93153866D02*
X114734285Y-93344342D01*
X114734285Y-93344342D02*
X114686666Y-93439580D01*
X114686666Y-93439580D02*
X114639047Y-93487200D01*
X114639047Y-93487200D02*
X114543809Y-93534819D01*
X114543809Y-93534819D02*
X114448571Y-93534819D01*
X114448571Y-93534819D02*
X114353333Y-93487200D01*
X114353333Y-93487200D02*
X114305714Y-93439580D01*
X114305714Y-93439580D02*
X114258095Y-93344342D01*
X114258095Y-93344342D02*
X114210476Y-93153866D01*
X114210476Y-93153866D02*
X114210476Y-92915771D01*
X114210476Y-92915771D02*
X114258095Y-92725295D01*
X114258095Y-92725295D02*
X114305714Y-92630057D01*
X114305714Y-92630057D02*
X114353333Y-92582438D01*
X114353333Y-92582438D02*
X114448571Y-92534819D01*
X182008333Y-89524819D02*
X181675000Y-89048628D01*
X181436905Y-89524819D02*
X181436905Y-88524819D01*
X181436905Y-88524819D02*
X181817857Y-88524819D01*
X181817857Y-88524819D02*
X181913095Y-88572438D01*
X181913095Y-88572438D02*
X181960714Y-88620057D01*
X181960714Y-88620057D02*
X182008333Y-88715295D01*
X182008333Y-88715295D02*
X182008333Y-88858152D01*
X182008333Y-88858152D02*
X181960714Y-88953390D01*
X181960714Y-88953390D02*
X181913095Y-89001009D01*
X181913095Y-89001009D02*
X181817857Y-89048628D01*
X181817857Y-89048628D02*
X181436905Y-89048628D01*
X182484524Y-89524819D02*
X182675000Y-89524819D01*
X182675000Y-89524819D02*
X182770238Y-89477200D01*
X182770238Y-89477200D02*
X182817857Y-89429580D01*
X182817857Y-89429580D02*
X182913095Y-89286723D01*
X182913095Y-89286723D02*
X182960714Y-89096247D01*
X182960714Y-89096247D02*
X182960714Y-88715295D01*
X182960714Y-88715295D02*
X182913095Y-88620057D01*
X182913095Y-88620057D02*
X182865476Y-88572438D01*
X182865476Y-88572438D02*
X182770238Y-88524819D01*
X182770238Y-88524819D02*
X182579762Y-88524819D01*
X182579762Y-88524819D02*
X182484524Y-88572438D01*
X182484524Y-88572438D02*
X182436905Y-88620057D01*
X182436905Y-88620057D02*
X182389286Y-88715295D01*
X182389286Y-88715295D02*
X182389286Y-88953390D01*
X182389286Y-88953390D02*
X182436905Y-89048628D01*
X182436905Y-89048628D02*
X182484524Y-89096247D01*
X182484524Y-89096247D02*
X182579762Y-89143866D01*
X182579762Y-89143866D02*
X182770238Y-89143866D01*
X182770238Y-89143866D02*
X182865476Y-89096247D01*
X182865476Y-89096247D02*
X182913095Y-89048628D01*
X182913095Y-89048628D02*
X182960714Y-88953390D01*
X171008333Y-86454819D02*
X170675000Y-85978628D01*
X170436905Y-86454819D02*
X170436905Y-85454819D01*
X170436905Y-85454819D02*
X170817857Y-85454819D01*
X170817857Y-85454819D02*
X170913095Y-85502438D01*
X170913095Y-85502438D02*
X170960714Y-85550057D01*
X170960714Y-85550057D02*
X171008333Y-85645295D01*
X171008333Y-85645295D02*
X171008333Y-85788152D01*
X171008333Y-85788152D02*
X170960714Y-85883390D01*
X170960714Y-85883390D02*
X170913095Y-85931009D01*
X170913095Y-85931009D02*
X170817857Y-85978628D01*
X170817857Y-85978628D02*
X170436905Y-85978628D01*
X171579762Y-85883390D02*
X171484524Y-85835771D01*
X171484524Y-85835771D02*
X171436905Y-85788152D01*
X171436905Y-85788152D02*
X171389286Y-85692914D01*
X171389286Y-85692914D02*
X171389286Y-85645295D01*
X171389286Y-85645295D02*
X171436905Y-85550057D01*
X171436905Y-85550057D02*
X171484524Y-85502438D01*
X171484524Y-85502438D02*
X171579762Y-85454819D01*
X171579762Y-85454819D02*
X171770238Y-85454819D01*
X171770238Y-85454819D02*
X171865476Y-85502438D01*
X171865476Y-85502438D02*
X171913095Y-85550057D01*
X171913095Y-85550057D02*
X171960714Y-85645295D01*
X171960714Y-85645295D02*
X171960714Y-85692914D01*
X171960714Y-85692914D02*
X171913095Y-85788152D01*
X171913095Y-85788152D02*
X171865476Y-85835771D01*
X171865476Y-85835771D02*
X171770238Y-85883390D01*
X171770238Y-85883390D02*
X171579762Y-85883390D01*
X171579762Y-85883390D02*
X171484524Y-85931009D01*
X171484524Y-85931009D02*
X171436905Y-85978628D01*
X171436905Y-85978628D02*
X171389286Y-86073866D01*
X171389286Y-86073866D02*
X171389286Y-86264342D01*
X171389286Y-86264342D02*
X171436905Y-86359580D01*
X171436905Y-86359580D02*
X171484524Y-86407200D01*
X171484524Y-86407200D02*
X171579762Y-86454819D01*
X171579762Y-86454819D02*
X171770238Y-86454819D01*
X171770238Y-86454819D02*
X171865476Y-86407200D01*
X171865476Y-86407200D02*
X171913095Y-86359580D01*
X171913095Y-86359580D02*
X171960714Y-86264342D01*
X171960714Y-86264342D02*
X171960714Y-86073866D01*
X171960714Y-86073866D02*
X171913095Y-85978628D01*
X171913095Y-85978628D02*
X171865476Y-85931009D01*
X171865476Y-85931009D02*
X171770238Y-85883390D01*
X167508333Y-86454819D02*
X167175000Y-85978628D01*
X166936905Y-86454819D02*
X166936905Y-85454819D01*
X166936905Y-85454819D02*
X167317857Y-85454819D01*
X167317857Y-85454819D02*
X167413095Y-85502438D01*
X167413095Y-85502438D02*
X167460714Y-85550057D01*
X167460714Y-85550057D02*
X167508333Y-85645295D01*
X167508333Y-85645295D02*
X167508333Y-85788152D01*
X167508333Y-85788152D02*
X167460714Y-85883390D01*
X167460714Y-85883390D02*
X167413095Y-85931009D01*
X167413095Y-85931009D02*
X167317857Y-85978628D01*
X167317857Y-85978628D02*
X166936905Y-85978628D01*
X167841667Y-85454819D02*
X168508333Y-85454819D01*
X168508333Y-85454819D02*
X168079762Y-86454819D01*
X146658333Y-92454819D02*
X146325000Y-91978628D01*
X146086905Y-92454819D02*
X146086905Y-91454819D01*
X146086905Y-91454819D02*
X146467857Y-91454819D01*
X146467857Y-91454819D02*
X146563095Y-91502438D01*
X146563095Y-91502438D02*
X146610714Y-91550057D01*
X146610714Y-91550057D02*
X146658333Y-91645295D01*
X146658333Y-91645295D02*
X146658333Y-91788152D01*
X146658333Y-91788152D02*
X146610714Y-91883390D01*
X146610714Y-91883390D02*
X146563095Y-91931009D01*
X146563095Y-91931009D02*
X146467857Y-91978628D01*
X146467857Y-91978628D02*
X146086905Y-91978628D01*
X147515476Y-91454819D02*
X147325000Y-91454819D01*
X147325000Y-91454819D02*
X147229762Y-91502438D01*
X147229762Y-91502438D02*
X147182143Y-91550057D01*
X147182143Y-91550057D02*
X147086905Y-91692914D01*
X147086905Y-91692914D02*
X147039286Y-91883390D01*
X147039286Y-91883390D02*
X147039286Y-92264342D01*
X147039286Y-92264342D02*
X147086905Y-92359580D01*
X147086905Y-92359580D02*
X147134524Y-92407200D01*
X147134524Y-92407200D02*
X147229762Y-92454819D01*
X147229762Y-92454819D02*
X147420238Y-92454819D01*
X147420238Y-92454819D02*
X147515476Y-92407200D01*
X147515476Y-92407200D02*
X147563095Y-92359580D01*
X147563095Y-92359580D02*
X147610714Y-92264342D01*
X147610714Y-92264342D02*
X147610714Y-92026247D01*
X147610714Y-92026247D02*
X147563095Y-91931009D01*
X147563095Y-91931009D02*
X147515476Y-91883390D01*
X147515476Y-91883390D02*
X147420238Y-91835771D01*
X147420238Y-91835771D02*
X147229762Y-91835771D01*
X147229762Y-91835771D02*
X147134524Y-91883390D01*
X147134524Y-91883390D02*
X147086905Y-91931009D01*
X147086905Y-91931009D02*
X147039286Y-92026247D01*
X158708333Y-92524819D02*
X158375000Y-92048628D01*
X158136905Y-92524819D02*
X158136905Y-91524819D01*
X158136905Y-91524819D02*
X158517857Y-91524819D01*
X158517857Y-91524819D02*
X158613095Y-91572438D01*
X158613095Y-91572438D02*
X158660714Y-91620057D01*
X158660714Y-91620057D02*
X158708333Y-91715295D01*
X158708333Y-91715295D02*
X158708333Y-91858152D01*
X158708333Y-91858152D02*
X158660714Y-91953390D01*
X158660714Y-91953390D02*
X158613095Y-92001009D01*
X158613095Y-92001009D02*
X158517857Y-92048628D01*
X158517857Y-92048628D02*
X158136905Y-92048628D01*
X159613095Y-91524819D02*
X159136905Y-91524819D01*
X159136905Y-91524819D02*
X159089286Y-92001009D01*
X159089286Y-92001009D02*
X159136905Y-91953390D01*
X159136905Y-91953390D02*
X159232143Y-91905771D01*
X159232143Y-91905771D02*
X159470238Y-91905771D01*
X159470238Y-91905771D02*
X159565476Y-91953390D01*
X159565476Y-91953390D02*
X159613095Y-92001009D01*
X159613095Y-92001009D02*
X159660714Y-92096247D01*
X159660714Y-92096247D02*
X159660714Y-92334342D01*
X159660714Y-92334342D02*
X159613095Y-92429580D01*
X159613095Y-92429580D02*
X159565476Y-92477200D01*
X159565476Y-92477200D02*
X159470238Y-92524819D01*
X159470238Y-92524819D02*
X159232143Y-92524819D01*
X159232143Y-92524819D02*
X159136905Y-92477200D01*
X159136905Y-92477200D02*
X159089286Y-92429580D01*
X109343333Y-93534819D02*
X109010000Y-93058628D01*
X108771905Y-93534819D02*
X108771905Y-92534819D01*
X108771905Y-92534819D02*
X109152857Y-92534819D01*
X109152857Y-92534819D02*
X109248095Y-92582438D01*
X109248095Y-92582438D02*
X109295714Y-92630057D01*
X109295714Y-92630057D02*
X109343333Y-92725295D01*
X109343333Y-92725295D02*
X109343333Y-92868152D01*
X109343333Y-92868152D02*
X109295714Y-92963390D01*
X109295714Y-92963390D02*
X109248095Y-93011009D01*
X109248095Y-93011009D02*
X109152857Y-93058628D01*
X109152857Y-93058628D02*
X108771905Y-93058628D01*
X110200476Y-92868152D02*
X110200476Y-93534819D01*
X109962381Y-92487200D02*
X109724286Y-93201485D01*
X109724286Y-93201485D02*
X110343333Y-93201485D01*
X149508333Y-86524819D02*
X149175000Y-86048628D01*
X148936905Y-86524819D02*
X148936905Y-85524819D01*
X148936905Y-85524819D02*
X149317857Y-85524819D01*
X149317857Y-85524819D02*
X149413095Y-85572438D01*
X149413095Y-85572438D02*
X149460714Y-85620057D01*
X149460714Y-85620057D02*
X149508333Y-85715295D01*
X149508333Y-85715295D02*
X149508333Y-85858152D01*
X149508333Y-85858152D02*
X149460714Y-85953390D01*
X149460714Y-85953390D02*
X149413095Y-86001009D01*
X149413095Y-86001009D02*
X149317857Y-86048628D01*
X149317857Y-86048628D02*
X148936905Y-86048628D01*
X149841667Y-85524819D02*
X150460714Y-85524819D01*
X150460714Y-85524819D02*
X150127381Y-85905771D01*
X150127381Y-85905771D02*
X150270238Y-85905771D01*
X150270238Y-85905771D02*
X150365476Y-85953390D01*
X150365476Y-85953390D02*
X150413095Y-86001009D01*
X150413095Y-86001009D02*
X150460714Y-86096247D01*
X150460714Y-86096247D02*
X150460714Y-86334342D01*
X150460714Y-86334342D02*
X150413095Y-86429580D01*
X150413095Y-86429580D02*
X150365476Y-86477200D01*
X150365476Y-86477200D02*
X150270238Y-86524819D01*
X150270238Y-86524819D02*
X149984524Y-86524819D01*
X149984524Y-86524819D02*
X149889286Y-86477200D01*
X149889286Y-86477200D02*
X149841667Y-86429580D01*
X163833333Y-87884819D02*
X163500000Y-87408628D01*
X163261905Y-87884819D02*
X163261905Y-86884819D01*
X163261905Y-86884819D02*
X163642857Y-86884819D01*
X163642857Y-86884819D02*
X163738095Y-86932438D01*
X163738095Y-86932438D02*
X163785714Y-86980057D01*
X163785714Y-86980057D02*
X163833333Y-87075295D01*
X163833333Y-87075295D02*
X163833333Y-87218152D01*
X163833333Y-87218152D02*
X163785714Y-87313390D01*
X163785714Y-87313390D02*
X163738095Y-87361009D01*
X163738095Y-87361009D02*
X163642857Y-87408628D01*
X163642857Y-87408628D02*
X163261905Y-87408628D01*
X164214286Y-86980057D02*
X164261905Y-86932438D01*
X164261905Y-86932438D02*
X164357143Y-86884819D01*
X164357143Y-86884819D02*
X164595238Y-86884819D01*
X164595238Y-86884819D02*
X164690476Y-86932438D01*
X164690476Y-86932438D02*
X164738095Y-86980057D01*
X164738095Y-86980057D02*
X164785714Y-87075295D01*
X164785714Y-87075295D02*
X164785714Y-87170533D01*
X164785714Y-87170533D02*
X164738095Y-87313390D01*
X164738095Y-87313390D02*
X164166667Y-87884819D01*
X164166667Y-87884819D02*
X164785714Y-87884819D01*
X174158333Y-95524819D02*
X173825000Y-95048628D01*
X173586905Y-95524819D02*
X173586905Y-94524819D01*
X173586905Y-94524819D02*
X173967857Y-94524819D01*
X173967857Y-94524819D02*
X174063095Y-94572438D01*
X174063095Y-94572438D02*
X174110714Y-94620057D01*
X174110714Y-94620057D02*
X174158333Y-94715295D01*
X174158333Y-94715295D02*
X174158333Y-94858152D01*
X174158333Y-94858152D02*
X174110714Y-94953390D01*
X174110714Y-94953390D02*
X174063095Y-95001009D01*
X174063095Y-95001009D02*
X173967857Y-95048628D01*
X173967857Y-95048628D02*
X173586905Y-95048628D01*
X175110714Y-95524819D02*
X174539286Y-95524819D01*
X174825000Y-95524819D02*
X174825000Y-94524819D01*
X174825000Y-94524819D02*
X174729762Y-94667676D01*
X174729762Y-94667676D02*
X174634524Y-94762914D01*
X174634524Y-94762914D02*
X174539286Y-94810533D01*
X165259819Y-78153333D02*
X165974104Y-78153333D01*
X165974104Y-78153333D02*
X166116961Y-78200952D01*
X166116961Y-78200952D02*
X166212200Y-78296190D01*
X166212200Y-78296190D02*
X166259819Y-78439047D01*
X166259819Y-78439047D02*
X166259819Y-78534285D01*
X165355057Y-77724761D02*
X165307438Y-77677142D01*
X165307438Y-77677142D02*
X165259819Y-77581904D01*
X165259819Y-77581904D02*
X165259819Y-77343809D01*
X165259819Y-77343809D02*
X165307438Y-77248571D01*
X165307438Y-77248571D02*
X165355057Y-77200952D01*
X165355057Y-77200952D02*
X165450295Y-77153333D01*
X165450295Y-77153333D02*
X165545533Y-77153333D01*
X165545533Y-77153333D02*
X165688390Y-77200952D01*
X165688390Y-77200952D02*
X166259819Y-77772380D01*
X166259819Y-77772380D02*
X166259819Y-77153333D01*
X146112584Y-89134634D02*
X146112584Y-88134634D01*
X146112584Y-88134634D02*
X146350679Y-88134634D01*
X146350679Y-88134634D02*
X146493536Y-88182253D01*
X146493536Y-88182253D02*
X146588774Y-88277491D01*
X146588774Y-88277491D02*
X146636393Y-88372729D01*
X146636393Y-88372729D02*
X146684012Y-88563205D01*
X146684012Y-88563205D02*
X146684012Y-88706062D01*
X146684012Y-88706062D02*
X146636393Y-88896538D01*
X146636393Y-88896538D02*
X146588774Y-88991776D01*
X146588774Y-88991776D02*
X146493536Y-89087015D01*
X146493536Y-89087015D02*
X146350679Y-89134634D01*
X146350679Y-89134634D02*
X146112584Y-89134634D01*
X147064965Y-88229872D02*
X147112584Y-88182253D01*
X147112584Y-88182253D02*
X147207822Y-88134634D01*
X147207822Y-88134634D02*
X147445917Y-88134634D01*
X147445917Y-88134634D02*
X147541155Y-88182253D01*
X147541155Y-88182253D02*
X147588774Y-88229872D01*
X147588774Y-88229872D02*
X147636393Y-88325110D01*
X147636393Y-88325110D02*
X147636393Y-88420348D01*
X147636393Y-88420348D02*
X147588774Y-88563205D01*
X147588774Y-88563205D02*
X147017346Y-89134634D01*
X147017346Y-89134634D02*
X147636393Y-89134634D01*
X157985714Y-88859580D02*
X157938095Y-88907200D01*
X157938095Y-88907200D02*
X157795238Y-88954819D01*
X157795238Y-88954819D02*
X157700000Y-88954819D01*
X157700000Y-88954819D02*
X157557143Y-88907200D01*
X157557143Y-88907200D02*
X157461905Y-88811961D01*
X157461905Y-88811961D02*
X157414286Y-88716723D01*
X157414286Y-88716723D02*
X157366667Y-88526247D01*
X157366667Y-88526247D02*
X157366667Y-88383390D01*
X157366667Y-88383390D02*
X157414286Y-88192914D01*
X157414286Y-88192914D02*
X157461905Y-88097676D01*
X157461905Y-88097676D02*
X157557143Y-88002438D01*
X157557143Y-88002438D02*
X157700000Y-87954819D01*
X157700000Y-87954819D02*
X157795238Y-87954819D01*
X157795238Y-87954819D02*
X157938095Y-88002438D01*
X157938095Y-88002438D02*
X157985714Y-88050057D01*
X158414286Y-88954819D02*
X158414286Y-87954819D01*
X158414286Y-88431009D02*
X158985714Y-88431009D01*
X158985714Y-88954819D02*
X158985714Y-87954819D01*
X160033333Y-88954819D02*
X159700000Y-88478628D01*
X159461905Y-88954819D02*
X159461905Y-87954819D01*
X159461905Y-87954819D02*
X159842857Y-87954819D01*
X159842857Y-87954819D02*
X159938095Y-88002438D01*
X159938095Y-88002438D02*
X159985714Y-88050057D01*
X159985714Y-88050057D02*
X160033333Y-88145295D01*
X160033333Y-88145295D02*
X160033333Y-88288152D01*
X160033333Y-88288152D02*
X159985714Y-88383390D01*
X159985714Y-88383390D02*
X159938095Y-88431009D01*
X159938095Y-88431009D02*
X159842857Y-88478628D01*
X159842857Y-88478628D02*
X159461905Y-88478628D01*
X160985714Y-88002438D02*
X160890476Y-87954819D01*
X160890476Y-87954819D02*
X160747619Y-87954819D01*
X160747619Y-87954819D02*
X160604762Y-88002438D01*
X160604762Y-88002438D02*
X160509524Y-88097676D01*
X160509524Y-88097676D02*
X160461905Y-88192914D01*
X160461905Y-88192914D02*
X160414286Y-88383390D01*
X160414286Y-88383390D02*
X160414286Y-88526247D01*
X160414286Y-88526247D02*
X160461905Y-88716723D01*
X160461905Y-88716723D02*
X160509524Y-88811961D01*
X160509524Y-88811961D02*
X160604762Y-88907200D01*
X160604762Y-88907200D02*
X160747619Y-88954819D01*
X160747619Y-88954819D02*
X160842857Y-88954819D01*
X160842857Y-88954819D02*
X160985714Y-88907200D01*
X160985714Y-88907200D02*
X161033333Y-88859580D01*
X161033333Y-88859580D02*
X161033333Y-88526247D01*
X161033333Y-88526247D02*
X160842857Y-88526247D01*
X99367142Y-101979580D02*
X99319523Y-102027200D01*
X99319523Y-102027200D02*
X99176666Y-102074819D01*
X99176666Y-102074819D02*
X99081428Y-102074819D01*
X99081428Y-102074819D02*
X98938571Y-102027200D01*
X98938571Y-102027200D02*
X98843333Y-101931961D01*
X98843333Y-101931961D02*
X98795714Y-101836723D01*
X98795714Y-101836723D02*
X98748095Y-101646247D01*
X98748095Y-101646247D02*
X98748095Y-101503390D01*
X98748095Y-101503390D02*
X98795714Y-101312914D01*
X98795714Y-101312914D02*
X98843333Y-101217676D01*
X98843333Y-101217676D02*
X98938571Y-101122438D01*
X98938571Y-101122438D02*
X99081428Y-101074819D01*
X99081428Y-101074819D02*
X99176666Y-101074819D01*
X99176666Y-101074819D02*
X99319523Y-101122438D01*
X99319523Y-101122438D02*
X99367142Y-101170057D01*
X100319523Y-102074819D02*
X99748095Y-102074819D01*
X100033809Y-102074819D02*
X100033809Y-101074819D01*
X100033809Y-101074819D02*
X99938571Y-101217676D01*
X99938571Y-101217676D02*
X99843333Y-101312914D01*
X99843333Y-101312914D02*
X99748095Y-101360533D01*
X100890952Y-101503390D02*
X100795714Y-101455771D01*
X100795714Y-101455771D02*
X100748095Y-101408152D01*
X100748095Y-101408152D02*
X100700476Y-101312914D01*
X100700476Y-101312914D02*
X100700476Y-101265295D01*
X100700476Y-101265295D02*
X100748095Y-101170057D01*
X100748095Y-101170057D02*
X100795714Y-101122438D01*
X100795714Y-101122438D02*
X100890952Y-101074819D01*
X100890952Y-101074819D02*
X101081428Y-101074819D01*
X101081428Y-101074819D02*
X101176666Y-101122438D01*
X101176666Y-101122438D02*
X101224285Y-101170057D01*
X101224285Y-101170057D02*
X101271904Y-101265295D01*
X101271904Y-101265295D02*
X101271904Y-101312914D01*
X101271904Y-101312914D02*
X101224285Y-101408152D01*
X101224285Y-101408152D02*
X101176666Y-101455771D01*
X101176666Y-101455771D02*
X101081428Y-101503390D01*
X101081428Y-101503390D02*
X100890952Y-101503390D01*
X100890952Y-101503390D02*
X100795714Y-101551009D01*
X100795714Y-101551009D02*
X100748095Y-101598628D01*
X100748095Y-101598628D02*
X100700476Y-101693866D01*
X100700476Y-101693866D02*
X100700476Y-101884342D01*
X100700476Y-101884342D02*
X100748095Y-101979580D01*
X100748095Y-101979580D02*
X100795714Y-102027200D01*
X100795714Y-102027200D02*
X100890952Y-102074819D01*
X100890952Y-102074819D02*
X101081428Y-102074819D01*
X101081428Y-102074819D02*
X101176666Y-102027200D01*
X101176666Y-102027200D02*
X101224285Y-101979580D01*
X101224285Y-101979580D02*
X101271904Y-101884342D01*
X101271904Y-101884342D02*
X101271904Y-101693866D01*
X101271904Y-101693866D02*
X101224285Y-101598628D01*
X101224285Y-101598628D02*
X101176666Y-101551009D01*
X101176666Y-101551009D02*
X101081428Y-101503390D01*
X99367142Y-99469580D02*
X99319523Y-99517200D01*
X99319523Y-99517200D02*
X99176666Y-99564819D01*
X99176666Y-99564819D02*
X99081428Y-99564819D01*
X99081428Y-99564819D02*
X98938571Y-99517200D01*
X98938571Y-99517200D02*
X98843333Y-99421961D01*
X98843333Y-99421961D02*
X98795714Y-99326723D01*
X98795714Y-99326723D02*
X98748095Y-99136247D01*
X98748095Y-99136247D02*
X98748095Y-98993390D01*
X98748095Y-98993390D02*
X98795714Y-98802914D01*
X98795714Y-98802914D02*
X98843333Y-98707676D01*
X98843333Y-98707676D02*
X98938571Y-98612438D01*
X98938571Y-98612438D02*
X99081428Y-98564819D01*
X99081428Y-98564819D02*
X99176666Y-98564819D01*
X99176666Y-98564819D02*
X99319523Y-98612438D01*
X99319523Y-98612438D02*
X99367142Y-98660057D01*
X100319523Y-99564819D02*
X99748095Y-99564819D01*
X100033809Y-99564819D02*
X100033809Y-98564819D01*
X100033809Y-98564819D02*
X99938571Y-98707676D01*
X99938571Y-98707676D02*
X99843333Y-98802914D01*
X99843333Y-98802914D02*
X99748095Y-98850533D01*
X100652857Y-98564819D02*
X101319523Y-98564819D01*
X101319523Y-98564819D02*
X100890952Y-99564819D01*
X99367142Y-96959580D02*
X99319523Y-97007200D01*
X99319523Y-97007200D02*
X99176666Y-97054819D01*
X99176666Y-97054819D02*
X99081428Y-97054819D01*
X99081428Y-97054819D02*
X98938571Y-97007200D01*
X98938571Y-97007200D02*
X98843333Y-96911961D01*
X98843333Y-96911961D02*
X98795714Y-96816723D01*
X98795714Y-96816723D02*
X98748095Y-96626247D01*
X98748095Y-96626247D02*
X98748095Y-96483390D01*
X98748095Y-96483390D02*
X98795714Y-96292914D01*
X98795714Y-96292914D02*
X98843333Y-96197676D01*
X98843333Y-96197676D02*
X98938571Y-96102438D01*
X98938571Y-96102438D02*
X99081428Y-96054819D01*
X99081428Y-96054819D02*
X99176666Y-96054819D01*
X99176666Y-96054819D02*
X99319523Y-96102438D01*
X99319523Y-96102438D02*
X99367142Y-96150057D01*
X100319523Y-97054819D02*
X99748095Y-97054819D01*
X100033809Y-97054819D02*
X100033809Y-96054819D01*
X100033809Y-96054819D02*
X99938571Y-96197676D01*
X99938571Y-96197676D02*
X99843333Y-96292914D01*
X99843333Y-96292914D02*
X99748095Y-96340533D01*
X101176666Y-96054819D02*
X100986190Y-96054819D01*
X100986190Y-96054819D02*
X100890952Y-96102438D01*
X100890952Y-96102438D02*
X100843333Y-96150057D01*
X100843333Y-96150057D02*
X100748095Y-96292914D01*
X100748095Y-96292914D02*
X100700476Y-96483390D01*
X100700476Y-96483390D02*
X100700476Y-96864342D01*
X100700476Y-96864342D02*
X100748095Y-96959580D01*
X100748095Y-96959580D02*
X100795714Y-97007200D01*
X100795714Y-97007200D02*
X100890952Y-97054819D01*
X100890952Y-97054819D02*
X101081428Y-97054819D01*
X101081428Y-97054819D02*
X101176666Y-97007200D01*
X101176666Y-97007200D02*
X101224285Y-96959580D01*
X101224285Y-96959580D02*
X101271904Y-96864342D01*
X101271904Y-96864342D02*
X101271904Y-96626247D01*
X101271904Y-96626247D02*
X101224285Y-96531009D01*
X101224285Y-96531009D02*
X101176666Y-96483390D01*
X101176666Y-96483390D02*
X101081428Y-96435771D01*
X101081428Y-96435771D02*
X100890952Y-96435771D01*
X100890952Y-96435771D02*
X100795714Y-96483390D01*
X100795714Y-96483390D02*
X100748095Y-96531009D01*
X100748095Y-96531009D02*
X100700476Y-96626247D01*
X99367142Y-94449580D02*
X99319523Y-94497200D01*
X99319523Y-94497200D02*
X99176666Y-94544819D01*
X99176666Y-94544819D02*
X99081428Y-94544819D01*
X99081428Y-94544819D02*
X98938571Y-94497200D01*
X98938571Y-94497200D02*
X98843333Y-94401961D01*
X98843333Y-94401961D02*
X98795714Y-94306723D01*
X98795714Y-94306723D02*
X98748095Y-94116247D01*
X98748095Y-94116247D02*
X98748095Y-93973390D01*
X98748095Y-93973390D02*
X98795714Y-93782914D01*
X98795714Y-93782914D02*
X98843333Y-93687676D01*
X98843333Y-93687676D02*
X98938571Y-93592438D01*
X98938571Y-93592438D02*
X99081428Y-93544819D01*
X99081428Y-93544819D02*
X99176666Y-93544819D01*
X99176666Y-93544819D02*
X99319523Y-93592438D01*
X99319523Y-93592438D02*
X99367142Y-93640057D01*
X100319523Y-94544819D02*
X99748095Y-94544819D01*
X100033809Y-94544819D02*
X100033809Y-93544819D01*
X100033809Y-93544819D02*
X99938571Y-93687676D01*
X99938571Y-93687676D02*
X99843333Y-93782914D01*
X99843333Y-93782914D02*
X99748095Y-93830533D01*
X101224285Y-93544819D02*
X100748095Y-93544819D01*
X100748095Y-93544819D02*
X100700476Y-94021009D01*
X100700476Y-94021009D02*
X100748095Y-93973390D01*
X100748095Y-93973390D02*
X100843333Y-93925771D01*
X100843333Y-93925771D02*
X101081428Y-93925771D01*
X101081428Y-93925771D02*
X101176666Y-93973390D01*
X101176666Y-93973390D02*
X101224285Y-94021009D01*
X101224285Y-94021009D02*
X101271904Y-94116247D01*
X101271904Y-94116247D02*
X101271904Y-94354342D01*
X101271904Y-94354342D02*
X101224285Y-94449580D01*
X101224285Y-94449580D02*
X101176666Y-94497200D01*
X101176666Y-94497200D02*
X101081428Y-94544819D01*
X101081428Y-94544819D02*
X100843333Y-94544819D01*
X100843333Y-94544819D02*
X100748095Y-94497200D01*
X100748095Y-94497200D02*
X100700476Y-94449580D01*
X99367142Y-91939580D02*
X99319523Y-91987200D01*
X99319523Y-91987200D02*
X99176666Y-92034819D01*
X99176666Y-92034819D02*
X99081428Y-92034819D01*
X99081428Y-92034819D02*
X98938571Y-91987200D01*
X98938571Y-91987200D02*
X98843333Y-91891961D01*
X98843333Y-91891961D02*
X98795714Y-91796723D01*
X98795714Y-91796723D02*
X98748095Y-91606247D01*
X98748095Y-91606247D02*
X98748095Y-91463390D01*
X98748095Y-91463390D02*
X98795714Y-91272914D01*
X98795714Y-91272914D02*
X98843333Y-91177676D01*
X98843333Y-91177676D02*
X98938571Y-91082438D01*
X98938571Y-91082438D02*
X99081428Y-91034819D01*
X99081428Y-91034819D02*
X99176666Y-91034819D01*
X99176666Y-91034819D02*
X99319523Y-91082438D01*
X99319523Y-91082438D02*
X99367142Y-91130057D01*
X100319523Y-92034819D02*
X99748095Y-92034819D01*
X100033809Y-92034819D02*
X100033809Y-91034819D01*
X100033809Y-91034819D02*
X99938571Y-91177676D01*
X99938571Y-91177676D02*
X99843333Y-91272914D01*
X99843333Y-91272914D02*
X99748095Y-91320533D01*
X101176666Y-91368152D02*
X101176666Y-92034819D01*
X100938571Y-90987200D02*
X100700476Y-91701485D01*
X100700476Y-91701485D02*
X101319523Y-91701485D01*
X99367142Y-89429580D02*
X99319523Y-89477200D01*
X99319523Y-89477200D02*
X99176666Y-89524819D01*
X99176666Y-89524819D02*
X99081428Y-89524819D01*
X99081428Y-89524819D02*
X98938571Y-89477200D01*
X98938571Y-89477200D02*
X98843333Y-89381961D01*
X98843333Y-89381961D02*
X98795714Y-89286723D01*
X98795714Y-89286723D02*
X98748095Y-89096247D01*
X98748095Y-89096247D02*
X98748095Y-88953390D01*
X98748095Y-88953390D02*
X98795714Y-88762914D01*
X98795714Y-88762914D02*
X98843333Y-88667676D01*
X98843333Y-88667676D02*
X98938571Y-88572438D01*
X98938571Y-88572438D02*
X99081428Y-88524819D01*
X99081428Y-88524819D02*
X99176666Y-88524819D01*
X99176666Y-88524819D02*
X99319523Y-88572438D01*
X99319523Y-88572438D02*
X99367142Y-88620057D01*
X100319523Y-89524819D02*
X99748095Y-89524819D01*
X100033809Y-89524819D02*
X100033809Y-88524819D01*
X100033809Y-88524819D02*
X99938571Y-88667676D01*
X99938571Y-88667676D02*
X99843333Y-88762914D01*
X99843333Y-88762914D02*
X99748095Y-88810533D01*
X100652857Y-88524819D02*
X101271904Y-88524819D01*
X101271904Y-88524819D02*
X100938571Y-88905771D01*
X100938571Y-88905771D02*
X101081428Y-88905771D01*
X101081428Y-88905771D02*
X101176666Y-88953390D01*
X101176666Y-88953390D02*
X101224285Y-89001009D01*
X101224285Y-89001009D02*
X101271904Y-89096247D01*
X101271904Y-89096247D02*
X101271904Y-89334342D01*
X101271904Y-89334342D02*
X101224285Y-89429580D01*
X101224285Y-89429580D02*
X101176666Y-89477200D01*
X101176666Y-89477200D02*
X101081428Y-89524819D01*
X101081428Y-89524819D02*
X100795714Y-89524819D01*
X100795714Y-89524819D02*
X100700476Y-89477200D01*
X100700476Y-89477200D02*
X100652857Y-89429580D01*
X95357142Y-101979580D02*
X95309523Y-102027200D01*
X95309523Y-102027200D02*
X95166666Y-102074819D01*
X95166666Y-102074819D02*
X95071428Y-102074819D01*
X95071428Y-102074819D02*
X94928571Y-102027200D01*
X94928571Y-102027200D02*
X94833333Y-101931961D01*
X94833333Y-101931961D02*
X94785714Y-101836723D01*
X94785714Y-101836723D02*
X94738095Y-101646247D01*
X94738095Y-101646247D02*
X94738095Y-101503390D01*
X94738095Y-101503390D02*
X94785714Y-101312914D01*
X94785714Y-101312914D02*
X94833333Y-101217676D01*
X94833333Y-101217676D02*
X94928571Y-101122438D01*
X94928571Y-101122438D02*
X95071428Y-101074819D01*
X95071428Y-101074819D02*
X95166666Y-101074819D01*
X95166666Y-101074819D02*
X95309523Y-101122438D01*
X95309523Y-101122438D02*
X95357142Y-101170057D01*
X96309523Y-102074819D02*
X95738095Y-102074819D01*
X96023809Y-102074819D02*
X96023809Y-101074819D01*
X96023809Y-101074819D02*
X95928571Y-101217676D01*
X95928571Y-101217676D02*
X95833333Y-101312914D01*
X95833333Y-101312914D02*
X95738095Y-101360533D01*
X96690476Y-101170057D02*
X96738095Y-101122438D01*
X96738095Y-101122438D02*
X96833333Y-101074819D01*
X96833333Y-101074819D02*
X97071428Y-101074819D01*
X97071428Y-101074819D02*
X97166666Y-101122438D01*
X97166666Y-101122438D02*
X97214285Y-101170057D01*
X97214285Y-101170057D02*
X97261904Y-101265295D01*
X97261904Y-101265295D02*
X97261904Y-101360533D01*
X97261904Y-101360533D02*
X97214285Y-101503390D01*
X97214285Y-101503390D02*
X96642857Y-102074819D01*
X96642857Y-102074819D02*
X97261904Y-102074819D01*
X95357142Y-99469580D02*
X95309523Y-99517200D01*
X95309523Y-99517200D02*
X95166666Y-99564819D01*
X95166666Y-99564819D02*
X95071428Y-99564819D01*
X95071428Y-99564819D02*
X94928571Y-99517200D01*
X94928571Y-99517200D02*
X94833333Y-99421961D01*
X94833333Y-99421961D02*
X94785714Y-99326723D01*
X94785714Y-99326723D02*
X94738095Y-99136247D01*
X94738095Y-99136247D02*
X94738095Y-98993390D01*
X94738095Y-98993390D02*
X94785714Y-98802914D01*
X94785714Y-98802914D02*
X94833333Y-98707676D01*
X94833333Y-98707676D02*
X94928571Y-98612438D01*
X94928571Y-98612438D02*
X95071428Y-98564819D01*
X95071428Y-98564819D02*
X95166666Y-98564819D01*
X95166666Y-98564819D02*
X95309523Y-98612438D01*
X95309523Y-98612438D02*
X95357142Y-98660057D01*
X96309523Y-99564819D02*
X95738095Y-99564819D01*
X96023809Y-99564819D02*
X96023809Y-98564819D01*
X96023809Y-98564819D02*
X95928571Y-98707676D01*
X95928571Y-98707676D02*
X95833333Y-98802914D01*
X95833333Y-98802914D02*
X95738095Y-98850533D01*
X97261904Y-99564819D02*
X96690476Y-99564819D01*
X96976190Y-99564819D02*
X96976190Y-98564819D01*
X96976190Y-98564819D02*
X96880952Y-98707676D01*
X96880952Y-98707676D02*
X96785714Y-98802914D01*
X96785714Y-98802914D02*
X96690476Y-98850533D01*
X95357142Y-96959580D02*
X95309523Y-97007200D01*
X95309523Y-97007200D02*
X95166666Y-97054819D01*
X95166666Y-97054819D02*
X95071428Y-97054819D01*
X95071428Y-97054819D02*
X94928571Y-97007200D01*
X94928571Y-97007200D02*
X94833333Y-96911961D01*
X94833333Y-96911961D02*
X94785714Y-96816723D01*
X94785714Y-96816723D02*
X94738095Y-96626247D01*
X94738095Y-96626247D02*
X94738095Y-96483390D01*
X94738095Y-96483390D02*
X94785714Y-96292914D01*
X94785714Y-96292914D02*
X94833333Y-96197676D01*
X94833333Y-96197676D02*
X94928571Y-96102438D01*
X94928571Y-96102438D02*
X95071428Y-96054819D01*
X95071428Y-96054819D02*
X95166666Y-96054819D01*
X95166666Y-96054819D02*
X95309523Y-96102438D01*
X95309523Y-96102438D02*
X95357142Y-96150057D01*
X96309523Y-97054819D02*
X95738095Y-97054819D01*
X96023809Y-97054819D02*
X96023809Y-96054819D01*
X96023809Y-96054819D02*
X95928571Y-96197676D01*
X95928571Y-96197676D02*
X95833333Y-96292914D01*
X95833333Y-96292914D02*
X95738095Y-96340533D01*
X96928571Y-96054819D02*
X97023809Y-96054819D01*
X97023809Y-96054819D02*
X97119047Y-96102438D01*
X97119047Y-96102438D02*
X97166666Y-96150057D01*
X97166666Y-96150057D02*
X97214285Y-96245295D01*
X97214285Y-96245295D02*
X97261904Y-96435771D01*
X97261904Y-96435771D02*
X97261904Y-96673866D01*
X97261904Y-96673866D02*
X97214285Y-96864342D01*
X97214285Y-96864342D02*
X97166666Y-96959580D01*
X97166666Y-96959580D02*
X97119047Y-97007200D01*
X97119047Y-97007200D02*
X97023809Y-97054819D01*
X97023809Y-97054819D02*
X96928571Y-97054819D01*
X96928571Y-97054819D02*
X96833333Y-97007200D01*
X96833333Y-97007200D02*
X96785714Y-96959580D01*
X96785714Y-96959580D02*
X96738095Y-96864342D01*
X96738095Y-96864342D02*
X96690476Y-96673866D01*
X96690476Y-96673866D02*
X96690476Y-96435771D01*
X96690476Y-96435771D02*
X96738095Y-96245295D01*
X96738095Y-96245295D02*
X96785714Y-96150057D01*
X96785714Y-96150057D02*
X96833333Y-96102438D01*
X96833333Y-96102438D02*
X96928571Y-96054819D01*
X95833333Y-94449580D02*
X95785714Y-94497200D01*
X95785714Y-94497200D02*
X95642857Y-94544819D01*
X95642857Y-94544819D02*
X95547619Y-94544819D01*
X95547619Y-94544819D02*
X95404762Y-94497200D01*
X95404762Y-94497200D02*
X95309524Y-94401961D01*
X95309524Y-94401961D02*
X95261905Y-94306723D01*
X95261905Y-94306723D02*
X95214286Y-94116247D01*
X95214286Y-94116247D02*
X95214286Y-93973390D01*
X95214286Y-93973390D02*
X95261905Y-93782914D01*
X95261905Y-93782914D02*
X95309524Y-93687676D01*
X95309524Y-93687676D02*
X95404762Y-93592438D01*
X95404762Y-93592438D02*
X95547619Y-93544819D01*
X95547619Y-93544819D02*
X95642857Y-93544819D01*
X95642857Y-93544819D02*
X95785714Y-93592438D01*
X95785714Y-93592438D02*
X95833333Y-93640057D01*
X96309524Y-94544819D02*
X96500000Y-94544819D01*
X96500000Y-94544819D02*
X96595238Y-94497200D01*
X96595238Y-94497200D02*
X96642857Y-94449580D01*
X96642857Y-94449580D02*
X96738095Y-94306723D01*
X96738095Y-94306723D02*
X96785714Y-94116247D01*
X96785714Y-94116247D02*
X96785714Y-93735295D01*
X96785714Y-93735295D02*
X96738095Y-93640057D01*
X96738095Y-93640057D02*
X96690476Y-93592438D01*
X96690476Y-93592438D02*
X96595238Y-93544819D01*
X96595238Y-93544819D02*
X96404762Y-93544819D01*
X96404762Y-93544819D02*
X96309524Y-93592438D01*
X96309524Y-93592438D02*
X96261905Y-93640057D01*
X96261905Y-93640057D02*
X96214286Y-93735295D01*
X96214286Y-93735295D02*
X96214286Y-93973390D01*
X96214286Y-93973390D02*
X96261905Y-94068628D01*
X96261905Y-94068628D02*
X96309524Y-94116247D01*
X96309524Y-94116247D02*
X96404762Y-94163866D01*
X96404762Y-94163866D02*
X96595238Y-94163866D01*
X96595238Y-94163866D02*
X96690476Y-94116247D01*
X96690476Y-94116247D02*
X96738095Y-94068628D01*
X96738095Y-94068628D02*
X96785714Y-93973390D01*
X95833333Y-91939580D02*
X95785714Y-91987200D01*
X95785714Y-91987200D02*
X95642857Y-92034819D01*
X95642857Y-92034819D02*
X95547619Y-92034819D01*
X95547619Y-92034819D02*
X95404762Y-91987200D01*
X95404762Y-91987200D02*
X95309524Y-91891961D01*
X95309524Y-91891961D02*
X95261905Y-91796723D01*
X95261905Y-91796723D02*
X95214286Y-91606247D01*
X95214286Y-91606247D02*
X95214286Y-91463390D01*
X95214286Y-91463390D02*
X95261905Y-91272914D01*
X95261905Y-91272914D02*
X95309524Y-91177676D01*
X95309524Y-91177676D02*
X95404762Y-91082438D01*
X95404762Y-91082438D02*
X95547619Y-91034819D01*
X95547619Y-91034819D02*
X95642857Y-91034819D01*
X95642857Y-91034819D02*
X95785714Y-91082438D01*
X95785714Y-91082438D02*
X95833333Y-91130057D01*
X96404762Y-91463390D02*
X96309524Y-91415771D01*
X96309524Y-91415771D02*
X96261905Y-91368152D01*
X96261905Y-91368152D02*
X96214286Y-91272914D01*
X96214286Y-91272914D02*
X96214286Y-91225295D01*
X96214286Y-91225295D02*
X96261905Y-91130057D01*
X96261905Y-91130057D02*
X96309524Y-91082438D01*
X96309524Y-91082438D02*
X96404762Y-91034819D01*
X96404762Y-91034819D02*
X96595238Y-91034819D01*
X96595238Y-91034819D02*
X96690476Y-91082438D01*
X96690476Y-91082438D02*
X96738095Y-91130057D01*
X96738095Y-91130057D02*
X96785714Y-91225295D01*
X96785714Y-91225295D02*
X96785714Y-91272914D01*
X96785714Y-91272914D02*
X96738095Y-91368152D01*
X96738095Y-91368152D02*
X96690476Y-91415771D01*
X96690476Y-91415771D02*
X96595238Y-91463390D01*
X96595238Y-91463390D02*
X96404762Y-91463390D01*
X96404762Y-91463390D02*
X96309524Y-91511009D01*
X96309524Y-91511009D02*
X96261905Y-91558628D01*
X96261905Y-91558628D02*
X96214286Y-91653866D01*
X96214286Y-91653866D02*
X96214286Y-91844342D01*
X96214286Y-91844342D02*
X96261905Y-91939580D01*
X96261905Y-91939580D02*
X96309524Y-91987200D01*
X96309524Y-91987200D02*
X96404762Y-92034819D01*
X96404762Y-92034819D02*
X96595238Y-92034819D01*
X96595238Y-92034819D02*
X96690476Y-91987200D01*
X96690476Y-91987200D02*
X96738095Y-91939580D01*
X96738095Y-91939580D02*
X96785714Y-91844342D01*
X96785714Y-91844342D02*
X96785714Y-91653866D01*
X96785714Y-91653866D02*
X96738095Y-91558628D01*
X96738095Y-91558628D02*
X96690476Y-91511009D01*
X96690476Y-91511009D02*
X96595238Y-91463390D01*
X95833333Y-89429580D02*
X95785714Y-89477200D01*
X95785714Y-89477200D02*
X95642857Y-89524819D01*
X95642857Y-89524819D02*
X95547619Y-89524819D01*
X95547619Y-89524819D02*
X95404762Y-89477200D01*
X95404762Y-89477200D02*
X95309524Y-89381961D01*
X95309524Y-89381961D02*
X95261905Y-89286723D01*
X95261905Y-89286723D02*
X95214286Y-89096247D01*
X95214286Y-89096247D02*
X95214286Y-88953390D01*
X95214286Y-88953390D02*
X95261905Y-88762914D01*
X95261905Y-88762914D02*
X95309524Y-88667676D01*
X95309524Y-88667676D02*
X95404762Y-88572438D01*
X95404762Y-88572438D02*
X95547619Y-88524819D01*
X95547619Y-88524819D02*
X95642857Y-88524819D01*
X95642857Y-88524819D02*
X95785714Y-88572438D01*
X95785714Y-88572438D02*
X95833333Y-88620057D01*
X96166667Y-88524819D02*
X96833333Y-88524819D01*
X96833333Y-88524819D02*
X96404762Y-89524819D01*
X91823333Y-101979580D02*
X91775714Y-102027200D01*
X91775714Y-102027200D02*
X91632857Y-102074819D01*
X91632857Y-102074819D02*
X91537619Y-102074819D01*
X91537619Y-102074819D02*
X91394762Y-102027200D01*
X91394762Y-102027200D02*
X91299524Y-101931961D01*
X91299524Y-101931961D02*
X91251905Y-101836723D01*
X91251905Y-101836723D02*
X91204286Y-101646247D01*
X91204286Y-101646247D02*
X91204286Y-101503390D01*
X91204286Y-101503390D02*
X91251905Y-101312914D01*
X91251905Y-101312914D02*
X91299524Y-101217676D01*
X91299524Y-101217676D02*
X91394762Y-101122438D01*
X91394762Y-101122438D02*
X91537619Y-101074819D01*
X91537619Y-101074819D02*
X91632857Y-101074819D01*
X91632857Y-101074819D02*
X91775714Y-101122438D01*
X91775714Y-101122438D02*
X91823333Y-101170057D01*
X92680476Y-101074819D02*
X92490000Y-101074819D01*
X92490000Y-101074819D02*
X92394762Y-101122438D01*
X92394762Y-101122438D02*
X92347143Y-101170057D01*
X92347143Y-101170057D02*
X92251905Y-101312914D01*
X92251905Y-101312914D02*
X92204286Y-101503390D01*
X92204286Y-101503390D02*
X92204286Y-101884342D01*
X92204286Y-101884342D02*
X92251905Y-101979580D01*
X92251905Y-101979580D02*
X92299524Y-102027200D01*
X92299524Y-102027200D02*
X92394762Y-102074819D01*
X92394762Y-102074819D02*
X92585238Y-102074819D01*
X92585238Y-102074819D02*
X92680476Y-102027200D01*
X92680476Y-102027200D02*
X92728095Y-101979580D01*
X92728095Y-101979580D02*
X92775714Y-101884342D01*
X92775714Y-101884342D02*
X92775714Y-101646247D01*
X92775714Y-101646247D02*
X92728095Y-101551009D01*
X92728095Y-101551009D02*
X92680476Y-101503390D01*
X92680476Y-101503390D02*
X92585238Y-101455771D01*
X92585238Y-101455771D02*
X92394762Y-101455771D01*
X92394762Y-101455771D02*
X92299524Y-101503390D01*
X92299524Y-101503390D02*
X92251905Y-101551009D01*
X92251905Y-101551009D02*
X92204286Y-101646247D01*
X91823333Y-99469580D02*
X91775714Y-99517200D01*
X91775714Y-99517200D02*
X91632857Y-99564819D01*
X91632857Y-99564819D02*
X91537619Y-99564819D01*
X91537619Y-99564819D02*
X91394762Y-99517200D01*
X91394762Y-99517200D02*
X91299524Y-99421961D01*
X91299524Y-99421961D02*
X91251905Y-99326723D01*
X91251905Y-99326723D02*
X91204286Y-99136247D01*
X91204286Y-99136247D02*
X91204286Y-98993390D01*
X91204286Y-98993390D02*
X91251905Y-98802914D01*
X91251905Y-98802914D02*
X91299524Y-98707676D01*
X91299524Y-98707676D02*
X91394762Y-98612438D01*
X91394762Y-98612438D02*
X91537619Y-98564819D01*
X91537619Y-98564819D02*
X91632857Y-98564819D01*
X91632857Y-98564819D02*
X91775714Y-98612438D01*
X91775714Y-98612438D02*
X91823333Y-98660057D01*
X92728095Y-98564819D02*
X92251905Y-98564819D01*
X92251905Y-98564819D02*
X92204286Y-99041009D01*
X92204286Y-99041009D02*
X92251905Y-98993390D01*
X92251905Y-98993390D02*
X92347143Y-98945771D01*
X92347143Y-98945771D02*
X92585238Y-98945771D01*
X92585238Y-98945771D02*
X92680476Y-98993390D01*
X92680476Y-98993390D02*
X92728095Y-99041009D01*
X92728095Y-99041009D02*
X92775714Y-99136247D01*
X92775714Y-99136247D02*
X92775714Y-99374342D01*
X92775714Y-99374342D02*
X92728095Y-99469580D01*
X92728095Y-99469580D02*
X92680476Y-99517200D01*
X92680476Y-99517200D02*
X92585238Y-99564819D01*
X92585238Y-99564819D02*
X92347143Y-99564819D01*
X92347143Y-99564819D02*
X92251905Y-99517200D01*
X92251905Y-99517200D02*
X92204286Y-99469580D01*
X91823333Y-96959580D02*
X91775714Y-97007200D01*
X91775714Y-97007200D02*
X91632857Y-97054819D01*
X91632857Y-97054819D02*
X91537619Y-97054819D01*
X91537619Y-97054819D02*
X91394762Y-97007200D01*
X91394762Y-97007200D02*
X91299524Y-96911961D01*
X91299524Y-96911961D02*
X91251905Y-96816723D01*
X91251905Y-96816723D02*
X91204286Y-96626247D01*
X91204286Y-96626247D02*
X91204286Y-96483390D01*
X91204286Y-96483390D02*
X91251905Y-96292914D01*
X91251905Y-96292914D02*
X91299524Y-96197676D01*
X91299524Y-96197676D02*
X91394762Y-96102438D01*
X91394762Y-96102438D02*
X91537619Y-96054819D01*
X91537619Y-96054819D02*
X91632857Y-96054819D01*
X91632857Y-96054819D02*
X91775714Y-96102438D01*
X91775714Y-96102438D02*
X91823333Y-96150057D01*
X92680476Y-96388152D02*
X92680476Y-97054819D01*
X92442381Y-96007200D02*
X92204286Y-96721485D01*
X92204286Y-96721485D02*
X92823333Y-96721485D01*
X91823333Y-94449580D02*
X91775714Y-94497200D01*
X91775714Y-94497200D02*
X91632857Y-94544819D01*
X91632857Y-94544819D02*
X91537619Y-94544819D01*
X91537619Y-94544819D02*
X91394762Y-94497200D01*
X91394762Y-94497200D02*
X91299524Y-94401961D01*
X91299524Y-94401961D02*
X91251905Y-94306723D01*
X91251905Y-94306723D02*
X91204286Y-94116247D01*
X91204286Y-94116247D02*
X91204286Y-93973390D01*
X91204286Y-93973390D02*
X91251905Y-93782914D01*
X91251905Y-93782914D02*
X91299524Y-93687676D01*
X91299524Y-93687676D02*
X91394762Y-93592438D01*
X91394762Y-93592438D02*
X91537619Y-93544819D01*
X91537619Y-93544819D02*
X91632857Y-93544819D01*
X91632857Y-93544819D02*
X91775714Y-93592438D01*
X91775714Y-93592438D02*
X91823333Y-93640057D01*
X92156667Y-93544819D02*
X92775714Y-93544819D01*
X92775714Y-93544819D02*
X92442381Y-93925771D01*
X92442381Y-93925771D02*
X92585238Y-93925771D01*
X92585238Y-93925771D02*
X92680476Y-93973390D01*
X92680476Y-93973390D02*
X92728095Y-94021009D01*
X92728095Y-94021009D02*
X92775714Y-94116247D01*
X92775714Y-94116247D02*
X92775714Y-94354342D01*
X92775714Y-94354342D02*
X92728095Y-94449580D01*
X92728095Y-94449580D02*
X92680476Y-94497200D01*
X92680476Y-94497200D02*
X92585238Y-94544819D01*
X92585238Y-94544819D02*
X92299524Y-94544819D01*
X92299524Y-94544819D02*
X92204286Y-94497200D01*
X92204286Y-94497200D02*
X92156667Y-94449580D01*
X91823333Y-91939580D02*
X91775714Y-91987200D01*
X91775714Y-91987200D02*
X91632857Y-92034819D01*
X91632857Y-92034819D02*
X91537619Y-92034819D01*
X91537619Y-92034819D02*
X91394762Y-91987200D01*
X91394762Y-91987200D02*
X91299524Y-91891961D01*
X91299524Y-91891961D02*
X91251905Y-91796723D01*
X91251905Y-91796723D02*
X91204286Y-91606247D01*
X91204286Y-91606247D02*
X91204286Y-91463390D01*
X91204286Y-91463390D02*
X91251905Y-91272914D01*
X91251905Y-91272914D02*
X91299524Y-91177676D01*
X91299524Y-91177676D02*
X91394762Y-91082438D01*
X91394762Y-91082438D02*
X91537619Y-91034819D01*
X91537619Y-91034819D02*
X91632857Y-91034819D01*
X91632857Y-91034819D02*
X91775714Y-91082438D01*
X91775714Y-91082438D02*
X91823333Y-91130057D01*
X92204286Y-91130057D02*
X92251905Y-91082438D01*
X92251905Y-91082438D02*
X92347143Y-91034819D01*
X92347143Y-91034819D02*
X92585238Y-91034819D01*
X92585238Y-91034819D02*
X92680476Y-91082438D01*
X92680476Y-91082438D02*
X92728095Y-91130057D01*
X92728095Y-91130057D02*
X92775714Y-91225295D01*
X92775714Y-91225295D02*
X92775714Y-91320533D01*
X92775714Y-91320533D02*
X92728095Y-91463390D01*
X92728095Y-91463390D02*
X92156667Y-92034819D01*
X92156667Y-92034819D02*
X92775714Y-92034819D01*
X91823333Y-89429580D02*
X91775714Y-89477200D01*
X91775714Y-89477200D02*
X91632857Y-89524819D01*
X91632857Y-89524819D02*
X91537619Y-89524819D01*
X91537619Y-89524819D02*
X91394762Y-89477200D01*
X91394762Y-89477200D02*
X91299524Y-89381961D01*
X91299524Y-89381961D02*
X91251905Y-89286723D01*
X91251905Y-89286723D02*
X91204286Y-89096247D01*
X91204286Y-89096247D02*
X91204286Y-88953390D01*
X91204286Y-88953390D02*
X91251905Y-88762914D01*
X91251905Y-88762914D02*
X91299524Y-88667676D01*
X91299524Y-88667676D02*
X91394762Y-88572438D01*
X91394762Y-88572438D02*
X91537619Y-88524819D01*
X91537619Y-88524819D02*
X91632857Y-88524819D01*
X91632857Y-88524819D02*
X91775714Y-88572438D01*
X91775714Y-88572438D02*
X91823333Y-88620057D01*
X92775714Y-89524819D02*
X92204286Y-89524819D01*
X92490000Y-89524819D02*
X92490000Y-88524819D01*
X92490000Y-88524819D02*
X92394762Y-88667676D01*
X92394762Y-88667676D02*
X92299524Y-88762914D01*
X92299524Y-88762914D02*
X92204286Y-88810533D01*
D12*
%TO.C,SW1*%
X169650000Y-69900000D02*
X169650000Y-69600000D01*
X169650000Y-67100000D02*
X169650000Y-67400000D01*
X166350000Y-69900000D02*
X169650000Y-69900000D01*
X166350000Y-69600000D02*
X166350000Y-69900000D01*
X166350000Y-67400000D02*
X166350000Y-67100000D01*
X166350000Y-67100000D02*
X169650000Y-67100000D01*
%TO.C,SW2*%
X175150000Y-69900000D02*
X175150000Y-69600000D01*
X175150000Y-67100000D02*
X175150000Y-67400000D01*
X171850000Y-69900000D02*
X175150000Y-69900000D01*
X171850000Y-69600000D02*
X171850000Y-69900000D01*
X171850000Y-67400000D02*
X171850000Y-67100000D01*
X171850000Y-67100000D02*
X175150000Y-67100000D01*
%TO.C,U2*%
X145875000Y-65140000D02*
X145375000Y-65140000D01*
X145875000Y-64640000D01*
X145875000Y-65140000D01*
G36*
X145875000Y-65140000D02*
G01*
X145375000Y-65140000D01*
X145875000Y-64640000D01*
X145875000Y-65140000D01*
G37*
X164120000Y-83995000D02*
X163120000Y-83995000D01*
X164120000Y-83215000D02*
X164120000Y-83995000D01*
X164120000Y-58255000D02*
X164120000Y-64670000D01*
X145880000Y-83995000D02*
X146880000Y-83995000D01*
X145880000Y-83215000D02*
X145880000Y-83995000D01*
X145880000Y-58255000D02*
X164120000Y-58255000D01*
X145880000Y-58255000D02*
X145880000Y-64415000D01*
%TO.C,J1*%
X138670000Y-66465000D02*
X138670000Y-66575000D01*
X138670000Y-66465000D02*
X140990000Y-66465000D01*
X138670000Y-66575000D02*
X136890000Y-66575000D01*
X138670000Y-67845000D02*
X138670000Y-69115000D01*
X138670000Y-70385000D02*
X138670000Y-71765000D01*
X138670000Y-71765000D02*
X140990000Y-71765000D01*
X140990000Y-66575000D02*
X140990000Y-67845000D01*
X140990000Y-69115000D02*
X140990000Y-70385000D01*
X140990000Y-71655000D02*
X140990000Y-71765000D01*
D13*
%TO.C,U7*%
X140925000Y-97000000D02*
X143500000Y-97000000D01*
X140925000Y-101500000D02*
X140925000Y-97000000D01*
X171575000Y-101500000D02*
X140925000Y-101500000D01*
X171575000Y-97000000D02*
X171575000Y-101500000D01*
X169000000Y-97000000D02*
X171575000Y-97000000D01*
D14*
X169350000Y-96300000D02*
G75*
G02*
X169150000Y-96300000I-100000J0D01*
G01*
X169150000Y-96300000D02*
G75*
G02*
X169350000Y-96300000I100000J0D01*
G01*
D12*
%TO.C,U6*%
X169100000Y-88765000D02*
X169100000Y-88540000D01*
X169100000Y-92600000D02*
X169100000Y-92075000D01*
X169100000Y-92600000D02*
X169625000Y-92600000D01*
X169625000Y-88300000D02*
X169400000Y-88300000D01*
X173400000Y-88300000D02*
X172875000Y-88300000D01*
X173400000Y-88300000D02*
X173400000Y-88825000D01*
X173400000Y-92600000D02*
X172875000Y-92600000D01*
X173400000Y-92600000D02*
X173400000Y-92075000D01*
X169100000Y-88300000D02*
X168860000Y-87970000D01*
X169340000Y-87970000D01*
X169100000Y-88300000D01*
G36*
X169100000Y-88300000D02*
G01*
X168860000Y-87970000D01*
X169340000Y-87970000D01*
X169100000Y-88300000D01*
G37*
%TO.C,U4*%
X140000000Y-90440000D02*
X139200000Y-90440000D01*
X140000000Y-90440000D02*
X140800000Y-90440000D01*
X140000000Y-93560000D02*
X139200000Y-93560000D01*
X140000000Y-93560000D02*
X140800000Y-93560000D01*
X138700000Y-90490000D02*
X138460000Y-90160000D01*
X138940000Y-90160000D01*
X138700000Y-90490000D01*
G36*
X138700000Y-90490000D02*
G01*
X138460000Y-90160000D01*
X138940000Y-90160000D01*
X138700000Y-90490000D01*
G37*
%TO.C,U1*%
X152800000Y-88765000D02*
X150850000Y-88765000D01*
X152800000Y-88765000D02*
X154750000Y-88765000D01*
X152800000Y-93885000D02*
X150850000Y-93885000D01*
X152800000Y-93885000D02*
X154750000Y-93885000D01*
X150100000Y-88860000D02*
X149860000Y-88530000D01*
X150340000Y-88530000D01*
X150100000Y-88860000D01*
G36*
X150100000Y-88860000D02*
G01*
X149860000Y-88530000D01*
X150340000Y-88530000D01*
X150100000Y-88860000D01*
G37*
%TO.C,SW3*%
X143710000Y-76830000D02*
X143710000Y-83130000D01*
X143450000Y-76830000D02*
X143710000Y-76830000D01*
X138950000Y-76830000D02*
X141550000Y-76830000D01*
X136800000Y-76830000D02*
X137050000Y-76830000D01*
X136800000Y-76830000D02*
X136800000Y-78980000D01*
X143710000Y-83130000D02*
X143450000Y-83130000D01*
X141550000Y-83130000D02*
X138950000Y-83130000D01*
X137050000Y-83130000D02*
X136800000Y-83130000D01*
X136800000Y-83130000D02*
X136800000Y-80980000D01*
%TO.C,R12*%
X113282742Y-99007500D02*
X113757258Y-99007500D01*
X113282742Y-100052500D02*
X113757258Y-100052500D01*
%TO.C,R11*%
X113282742Y-96497500D02*
X113757258Y-96497500D01*
X113282742Y-97542500D02*
X113757258Y-97542500D01*
%TO.C,R10*%
X113282742Y-93987500D02*
X113757258Y-93987500D01*
X113282742Y-95032500D02*
X113757258Y-95032500D01*
%TO.C,R9*%
X181937742Y-89977500D02*
X182412258Y-89977500D01*
X181937742Y-91022500D02*
X182412258Y-91022500D01*
%TO.C,R8*%
X170937742Y-83977500D02*
X171412258Y-83977500D01*
X170937742Y-85022500D02*
X171412258Y-85022500D01*
%TO.C,R7*%
X167437742Y-83977500D02*
X167912258Y-83977500D01*
X167437742Y-85022500D02*
X167912258Y-85022500D01*
%TO.C,R6*%
X147062258Y-94022500D02*
X146587742Y-94022500D01*
X147062258Y-92977500D02*
X146587742Y-92977500D01*
%TO.C,R5*%
X158637742Y-92977500D02*
X159112258Y-92977500D01*
X158637742Y-94022500D02*
X159112258Y-94022500D01*
%TO.C,R4*%
X109272742Y-93987500D02*
X109747258Y-93987500D01*
X109272742Y-95032500D02*
X109747258Y-95032500D01*
%TO.C,R3*%
X149437742Y-86977500D02*
X149912258Y-86977500D01*
X149437742Y-88022500D02*
X149912258Y-88022500D01*
%TO.C,R2*%
X164237258Y-86522500D02*
X163762742Y-86522500D01*
X164237258Y-85477500D02*
X163762742Y-85477500D01*
%TO.C,R1*%
X174087742Y-95977500D02*
X174562258Y-95977500D01*
X174087742Y-97022500D02*
X174562258Y-97022500D01*
%TO.C,J2*%
X169550000Y-82520000D02*
X171550000Y-82520000D01*
X173450000Y-82520000D02*
X175350000Y-82520000D01*
X175350000Y-82520000D02*
X175350000Y-73120000D01*
X169550000Y-73120000D02*
X171550000Y-73120000D01*
X173450000Y-73120000D02*
X175350000Y-73120000D01*
%TO.C,D2*%
X145365679Y-89374815D02*
X145365679Y-90844815D01*
X145365679Y-90844815D02*
X147650679Y-90844815D01*
X147650679Y-89374815D02*
X145365679Y-89374815D01*
%TO.C,CHRG*%
X160397500Y-90735000D02*
X160397500Y-89265000D01*
X160397500Y-89265000D02*
X158112500Y-89265000D01*
X158112500Y-90735000D02*
X160397500Y-90735000D01*
%TO.C,C18*%
X99869420Y-102540000D02*
X100150580Y-102540000D01*
X99869420Y-103560000D02*
X100150580Y-103560000D01*
%TO.C,C17*%
X99869420Y-100030000D02*
X100150580Y-100030000D01*
X99869420Y-101050000D02*
X100150580Y-101050000D01*
%TO.C,C16*%
X99869420Y-97520000D02*
X100150580Y-97520000D01*
X99869420Y-98540000D02*
X100150580Y-98540000D01*
%TO.C,C15*%
X99869420Y-95010000D02*
X100150580Y-95010000D01*
X99869420Y-96030000D02*
X100150580Y-96030000D01*
%TO.C,C14*%
X99869420Y-92500000D02*
X100150580Y-92500000D01*
X99869420Y-93520000D02*
X100150580Y-93520000D01*
%TO.C,C13*%
X99869420Y-89990000D02*
X100150580Y-89990000D01*
X99869420Y-91010000D02*
X100150580Y-91010000D01*
%TO.C,C12*%
X95859420Y-102540000D02*
X96140580Y-102540000D01*
X95859420Y-103560000D02*
X96140580Y-103560000D01*
%TO.C,C11*%
X95859420Y-100030000D02*
X96140580Y-100030000D01*
X95859420Y-101050000D02*
X96140580Y-101050000D01*
%TO.C,C10*%
X95859420Y-97520000D02*
X96140580Y-97520000D01*
X95859420Y-98540000D02*
X96140580Y-98540000D01*
%TO.C,C9*%
X95859420Y-95010000D02*
X96140580Y-95010000D01*
X95859420Y-96030000D02*
X96140580Y-96030000D01*
%TO.C,C8*%
X95859420Y-92500000D02*
X96140580Y-92500000D01*
X95859420Y-93520000D02*
X96140580Y-93520000D01*
%TO.C,C7*%
X95859420Y-89990000D02*
X96140580Y-89990000D01*
X95859420Y-91010000D02*
X96140580Y-91010000D01*
%TO.C,C6*%
X91849420Y-102540000D02*
X92130580Y-102540000D01*
X91849420Y-103560000D02*
X92130580Y-103560000D01*
%TO.C,C5*%
X91849420Y-100030000D02*
X92130580Y-100030000D01*
X91849420Y-101050000D02*
X92130580Y-101050000D01*
%TO.C,C4*%
X91849420Y-97520000D02*
X92130580Y-97520000D01*
X91849420Y-98540000D02*
X92130580Y-98540000D01*
%TO.C,C3*%
X91849420Y-95010000D02*
X92130580Y-95010000D01*
X91849420Y-96030000D02*
X92130580Y-96030000D01*
%TO.C,C2*%
X91849420Y-92500000D02*
X92130580Y-92500000D01*
X91849420Y-93520000D02*
X92130580Y-93520000D01*
%TO.C,C1*%
X91849420Y-89990000D02*
X92130580Y-89990000D01*
X91849420Y-91010000D02*
X92130580Y-91010000D01*
%TD*%
M02*
