%TF.GenerationSoftware,KiCad,Pcbnew,9.0.4*%
%TF.CreationDate,2026-07-17T01:27:40-04:00*%
%TF.ProjectId,wearable_revB,77656172-6162-46c6-955f-726576422e6b,rev?*%
%TF.SameCoordinates,Original*%
%TF.FileFunction,Paste,Top*%
%TF.FilePolarity,Positive*%
%FSLAX46Y46*%
G04 Gerber Fmt 4.6, Leading zero omitted, Abs format (unit mm)*
G04 Created by KiCad (PCBNEW 9.0.4) date 2026-07-17 01:27:40*
%MOMM*%
%LPD*%
G01*
G04 APERTURE LIST*
G04 Aperture macros list*
%AMRoundRect*
0 Rectangle with rounded corners*
0 $1 Rounding radius*
0 $2 $3 $4 $5 $6 $7 $8 $9 X,Y pos of 4 corners*
0 Add a 4 corners polygon primitive as box body*
4,1,4,$2,$3,$4,$5,$6,$7,$8,$9,$2,$3,0*
0 Add four circle primitives for the rounded corners*
1,1,$1+$1,$2,$3*
1,1,$1+$1,$4,$5*
1,1,$1+$1,$6,$7*
1,1,$1+$1,$8,$9*
0 Add four rect primitives between the rounded corners*
20,1,$1+$1,$2,$3,$4,$5,0*
20,1,$1+$1,$4,$5,$6,$7,0*
20,1,$1+$1,$6,$7,$8,$9,0*
20,1,$1+$1,$8,$9,$2,$3,0*%
G04 Aperture macros list end*
%ADD10R,0.900000X1.700000*%
%ADD11R,1.050000X1.050000*%
%ADD12R,1.500000X0.900000*%
%ADD13R,0.900000X1.500000*%
%ADD14R,3.000000X0.650000*%
%ADD15R,2.000000X3.000000*%
%ADD16R,0.300000X1.250000*%
%ADD17RoundRect,0.075000X-0.350000X-0.075000X0.350000X-0.075000X0.350000X0.075000X-0.350000X0.075000X0*%
%ADD18RoundRect,0.075000X0.075000X-0.350000X0.075000X0.350000X-0.075000X0.350000X-0.075000X-0.350000X0*%
%ADD19RoundRect,0.150000X-0.512500X-0.150000X0.512500X-0.150000X0.512500X0.150000X-0.512500X0.150000X0*%
%ADD20RoundRect,0.250000X-0.255000X-0.440000X0.255000X-0.440000X0.255000X0.440000X-0.255000X0.440000X0*%
%ADD21RoundRect,0.150000X-0.825000X-0.150000X0.825000X-0.150000X0.825000X0.150000X-0.825000X0.150000X0*%
%ADD22R,1.300000X1.550000*%
%ADD23R,1.700000X1.300000*%
%ADD24RoundRect,0.200000X-0.200000X-0.275000X0.200000X-0.275000X0.200000X0.275000X-0.200000X0.275000X0*%
%ADD25RoundRect,0.200000X0.200000X0.275000X-0.200000X0.275000X-0.200000X-0.275000X0.200000X-0.275000X0*%
%ADD26R,1.450000X0.600000*%
%ADD27R,1.450000X0.300000*%
%ADD28RoundRect,0.218750X-0.218750X-0.256250X0.218750X-0.256250X0.218750X0.256250X-0.218750X0.256250X0*%
%ADD29RoundRect,0.218750X0.218750X0.256250X-0.218750X0.256250X-0.218750X-0.256250X0.218750X-0.256250X0*%
%ADD30RoundRect,0.225000X-0.225000X-0.250000X0.225000X-0.250000X0.225000X0.250000X-0.225000X0.250000X0*%
G04 APERTURE END LIST*
D10*
%TO.C,SW1*%
X169700000Y-68500000D03*
X166300000Y-68500000D03*
%TD*%
%TO.C,SW2*%
X175200000Y-68500000D03*
X171800000Y-68500000D03*
%TD*%
D11*
%TO.C,U2*%
X155845000Y-74730000D03*
X155845000Y-73205000D03*
X155845000Y-71680000D03*
X154320000Y-74730000D03*
X154320000Y-73205000D03*
X154320000Y-71680000D03*
X152795000Y-74730000D03*
X152795000Y-73205000D03*
X152795000Y-71680000D03*
D12*
X163750000Y-65865000D03*
X163750000Y-67135000D03*
X163750000Y-68405000D03*
X163750000Y-69675000D03*
X163750000Y-70945000D03*
X163750000Y-72215000D03*
X163750000Y-73485000D03*
X163750000Y-74755000D03*
X163750000Y-76025000D03*
X163750000Y-77295000D03*
X163750000Y-78565000D03*
X163750000Y-79835000D03*
X163750000Y-81105000D03*
X163750000Y-82375000D03*
D13*
X160720000Y-83625000D03*
X159450000Y-83625000D03*
X158180000Y-83625000D03*
X156910000Y-83625000D03*
X155640000Y-83625000D03*
X154370000Y-83625000D03*
X153100000Y-83625000D03*
X151830000Y-83625000D03*
X150560000Y-83625000D03*
X149290000Y-83625000D03*
D12*
X146250000Y-82375000D03*
X146250000Y-81105000D03*
X146250000Y-79835000D03*
X146250000Y-78565000D03*
X146250000Y-77295000D03*
X146250000Y-76025000D03*
X146250000Y-74755000D03*
X146250000Y-73485000D03*
X146250000Y-72215000D03*
X146250000Y-70945000D03*
X146250000Y-69675000D03*
X146250000Y-68405000D03*
X146250000Y-67135000D03*
X146250000Y-65865000D03*
%TD*%
D14*
%TO.C,J1*%
X138330000Y-67210000D03*
X141330000Y-68480000D03*
X138330000Y-69750000D03*
X141330000Y-71020000D03*
%TD*%
D15*
%TO.C,U7*%
X170040000Y-98825000D03*
X142460000Y-98825000D03*
D16*
X144000000Y-96500000D03*
X144500000Y-96500000D03*
X145000000Y-96500000D03*
X145500000Y-96500000D03*
X146000000Y-96500000D03*
X146500000Y-96500000D03*
X147000000Y-96500000D03*
X147500000Y-96500000D03*
X148000000Y-96500000D03*
X148500000Y-96500000D03*
X149000000Y-96500000D03*
X149500000Y-96500000D03*
X150000000Y-96500000D03*
X150500000Y-96500000D03*
X151000000Y-96500000D03*
X151500000Y-96500000D03*
X152000000Y-96500000D03*
X152500000Y-96500000D03*
X153000000Y-96500000D03*
X153500000Y-96500000D03*
X154000000Y-96500000D03*
X154500000Y-96500000D03*
X155000000Y-96500000D03*
X155500000Y-96500000D03*
X156000000Y-96500000D03*
X156500000Y-96500000D03*
X157000000Y-96500000D03*
X157500000Y-96500000D03*
X158000000Y-96500000D03*
X158500000Y-96500000D03*
X159000000Y-96500000D03*
X159500000Y-96500000D03*
X160000000Y-96500000D03*
X160500000Y-96500000D03*
X161000000Y-96500000D03*
X161500000Y-96500000D03*
X162000000Y-96500000D03*
X162500000Y-96500000D03*
X163000000Y-96500000D03*
X163500000Y-96500000D03*
X164000000Y-96500000D03*
X164500000Y-96500000D03*
X165000000Y-96500000D03*
X165500000Y-96500000D03*
X166000000Y-96500000D03*
X166500000Y-96500000D03*
X167000000Y-96500000D03*
X167500000Y-96500000D03*
X168000000Y-96500000D03*
X168500000Y-96500000D03*
%TD*%
D17*
%TO.C,U6*%
X169300000Y-89200000D03*
X169300000Y-89700000D03*
X169300000Y-90200000D03*
X169300000Y-90700000D03*
X169300000Y-91200000D03*
X169300000Y-91700000D03*
D18*
X170000000Y-92400000D03*
X170500000Y-92400000D03*
X171000000Y-92400000D03*
X171500000Y-92400000D03*
X172000000Y-92400000D03*
X172500000Y-92400000D03*
D17*
X173200000Y-91700000D03*
X173200000Y-91200000D03*
X173200000Y-90700000D03*
X173200000Y-90200000D03*
X173200000Y-89700000D03*
X173200000Y-89200000D03*
D18*
X172500000Y-88500000D03*
X172000000Y-88500000D03*
X171500000Y-88500000D03*
X171000000Y-88500000D03*
X170500000Y-88500000D03*
X170000000Y-88500000D03*
%TD*%
D19*
%TO.C,U4*%
X138862500Y-91050000D03*
X138862500Y-92000000D03*
X138862500Y-92950000D03*
X141137500Y-92950000D03*
X141137500Y-91050000D03*
%TD*%
D20*
%TO.C,U1*%
X152200000Y-90500000D03*
X152200000Y-92150000D03*
X153400000Y-90500000D03*
X153400000Y-92150000D03*
D21*
X150325000Y-89420000D03*
X150325000Y-90690000D03*
X150325000Y-91960000D03*
X150325000Y-93230000D03*
X155275000Y-93230000D03*
X155275000Y-91960000D03*
X155275000Y-90690000D03*
X155275000Y-89420000D03*
%TD*%
D22*
%TO.C,SW3*%
X142500000Y-76000000D03*
X142500000Y-83960000D03*
X138000000Y-76000000D03*
X138000000Y-83960000D03*
D23*
X136160000Y-79980000D03*
%TD*%
D24*
%TO.C,R12*%
X112695000Y-99530000D03*
X114345000Y-99530000D03*
%TD*%
%TO.C,R11*%
X112695000Y-97020000D03*
X114345000Y-97020000D03*
%TD*%
%TO.C,R10*%
X112695000Y-94510000D03*
X114345000Y-94510000D03*
%TD*%
%TO.C,R9*%
X181350000Y-90500000D03*
X183000000Y-90500000D03*
%TD*%
%TO.C,R8*%
X170350000Y-84500000D03*
X172000000Y-84500000D03*
%TD*%
%TO.C,R7*%
X166850000Y-84500000D03*
X168500000Y-84500000D03*
%TD*%
D25*
%TO.C,R6*%
X147650000Y-93500000D03*
X146000000Y-93500000D03*
%TD*%
D24*
%TO.C,R5*%
X158050000Y-93500000D03*
X159700000Y-93500000D03*
%TD*%
%TO.C,R4*%
X108685000Y-94510000D03*
X110335000Y-94510000D03*
%TD*%
%TO.C,R3*%
X148850000Y-87500000D03*
X150500000Y-87500000D03*
%TD*%
D25*
%TO.C,R2*%
X164825000Y-86000000D03*
X163175000Y-86000000D03*
%TD*%
D24*
%TO.C,R1*%
X173500000Y-96500000D03*
X175150000Y-96500000D03*
%TD*%
D26*
%TO.C,J2*%
X167405000Y-81070000D03*
X167405000Y-80270000D03*
D27*
X167405000Y-79070000D03*
X167405000Y-78070000D03*
X167405000Y-77570000D03*
X167405000Y-76570000D03*
D26*
X167405000Y-75370000D03*
X167405000Y-74570000D03*
X167405000Y-74570000D03*
X167405000Y-75370000D03*
D27*
X167405000Y-76070000D03*
X167405000Y-77070000D03*
X167405000Y-78570000D03*
X167405000Y-79570000D03*
D26*
X167405000Y-80270000D03*
X167405000Y-81070000D03*
%TD*%
D28*
%TO.C,D2*%
X146063179Y-90109815D03*
X147638179Y-90109815D03*
%TD*%
D29*
%TO.C,CHRG*%
X159700000Y-90000000D03*
X158125000Y-90000000D03*
%TD*%
D30*
%TO.C,C18*%
X99235000Y-103050000D03*
X100785000Y-103050000D03*
%TD*%
%TO.C,C17*%
X99235000Y-100540000D03*
X100785000Y-100540000D03*
%TD*%
%TO.C,C16*%
X99235000Y-98030000D03*
X100785000Y-98030000D03*
%TD*%
%TO.C,C15*%
X99235000Y-95520000D03*
X100785000Y-95520000D03*
%TD*%
%TO.C,C14*%
X99235000Y-93010000D03*
X100785000Y-93010000D03*
%TD*%
%TO.C,C13*%
X99235000Y-90500000D03*
X100785000Y-90500000D03*
%TD*%
%TO.C,C12*%
X95225000Y-103050000D03*
X96775000Y-103050000D03*
%TD*%
%TO.C,C11*%
X95225000Y-100540000D03*
X96775000Y-100540000D03*
%TD*%
%TO.C,C10*%
X95225000Y-98030000D03*
X96775000Y-98030000D03*
%TD*%
%TO.C,C9*%
X95225000Y-95520000D03*
X96775000Y-95520000D03*
%TD*%
%TO.C,C8*%
X95225000Y-93010000D03*
X96775000Y-93010000D03*
%TD*%
%TO.C,C7*%
X95225000Y-90500000D03*
X96775000Y-90500000D03*
%TD*%
%TO.C,C6*%
X91215000Y-103050000D03*
X92765000Y-103050000D03*
%TD*%
%TO.C,C5*%
X91215000Y-100540000D03*
X92765000Y-100540000D03*
%TD*%
%TO.C,C4*%
X91215000Y-98030000D03*
X92765000Y-98030000D03*
%TD*%
%TO.C,C3*%
X91215000Y-95520000D03*
X92765000Y-95520000D03*
%TD*%
%TO.C,C2*%
X91215000Y-93010000D03*
X92765000Y-93010000D03*
%TD*%
%TO.C,C1*%
X91215000Y-90500000D03*
X92765000Y-90500000D03*
%TD*%
M02*
