%TF.GenerationSoftware,KiCad,Pcbnew,9.0.4*%
%TF.CreationDate,2026-07-17T01:27:40-04:00*%
%TF.ProjectId,wearable_revB,77656172-6162-46c6-955f-726576422e6b,rev?*%
%TF.SameCoordinates,Original*%
%TF.FileFunction,Legend,Bot*%
%TF.FilePolarity,Positive*%
%FSLAX46Y46*%
G04 Gerber Fmt 4.6, Leading zero omitted, Abs format (unit mm)*
G04 Created by KiCad (PCBNEW 9.0.4) date 2026-07-17 01:27:40*
%MOMM*%
%LPD*%
G01*
G04 APERTURE LIST*
%ADD10C,0.150000*%
%ADD11C,0.120000*%
G04 APERTURE END LIST*
D10*
X153874404Y-81004819D02*
X153874404Y-81814342D01*
X153874404Y-81814342D02*
X153826785Y-81909580D01*
X153826785Y-81909580D02*
X153779166Y-81957200D01*
X153779166Y-81957200D02*
X153683928Y-82004819D01*
X153683928Y-82004819D02*
X153493452Y-82004819D01*
X153493452Y-82004819D02*
X153398214Y-81957200D01*
X153398214Y-81957200D02*
X153350595Y-81909580D01*
X153350595Y-81909580D02*
X153302976Y-81814342D01*
X153302976Y-81814342D02*
X153302976Y-81004819D01*
X152350595Y-81004819D02*
X152826785Y-81004819D01*
X152826785Y-81004819D02*
X152874404Y-81481009D01*
X152874404Y-81481009D02*
X152826785Y-81433390D01*
X152826785Y-81433390D02*
X152731547Y-81385771D01*
X152731547Y-81385771D02*
X152493452Y-81385771D01*
X152493452Y-81385771D02*
X152398214Y-81433390D01*
X152398214Y-81433390D02*
X152350595Y-81481009D01*
X152350595Y-81481009D02*
X152302976Y-81576247D01*
X152302976Y-81576247D02*
X152302976Y-81814342D01*
X152302976Y-81814342D02*
X152350595Y-81909580D01*
X152350595Y-81909580D02*
X152398214Y-81957200D01*
X152398214Y-81957200D02*
X152493452Y-82004819D01*
X152493452Y-82004819D02*
X152731547Y-82004819D01*
X152731547Y-82004819D02*
X152826785Y-81957200D01*
X152826785Y-81957200D02*
X152874404Y-81909580D01*
X157541904Y-79384819D02*
X157541904Y-80194342D01*
X157541904Y-80194342D02*
X157494285Y-80289580D01*
X157494285Y-80289580D02*
X157446666Y-80337200D01*
X157446666Y-80337200D02*
X157351428Y-80384819D01*
X157351428Y-80384819D02*
X157160952Y-80384819D01*
X157160952Y-80384819D02*
X157065714Y-80337200D01*
X157065714Y-80337200D02*
X157018095Y-80289580D01*
X157018095Y-80289580D02*
X156970476Y-80194342D01*
X156970476Y-80194342D02*
X156970476Y-79384819D01*
X156589523Y-79384819D02*
X155970476Y-79384819D01*
X155970476Y-79384819D02*
X156303809Y-79765771D01*
X156303809Y-79765771D02*
X156160952Y-79765771D01*
X156160952Y-79765771D02*
X156065714Y-79813390D01*
X156065714Y-79813390D02*
X156018095Y-79861009D01*
X156018095Y-79861009D02*
X155970476Y-79956247D01*
X155970476Y-79956247D02*
X155970476Y-80194342D01*
X155970476Y-80194342D02*
X156018095Y-80289580D01*
X156018095Y-80289580D02*
X156065714Y-80337200D01*
X156065714Y-80337200D02*
X156160952Y-80384819D01*
X156160952Y-80384819D02*
X156446666Y-80384819D01*
X156446666Y-80384819D02*
X156541904Y-80337200D01*
X156541904Y-80337200D02*
X156589523Y-80289580D01*
D11*
%TO.C,U5*%
X154112500Y-82390000D02*
X152112500Y-82390000D01*
X154112500Y-84610000D02*
X152112500Y-84610000D01*
X154632500Y-82490000D02*
X154352500Y-82490000D01*
X154352500Y-82210000D01*
X154632500Y-82490000D01*
G36*
X154632500Y-82490000D02*
G01*
X154352500Y-82490000D01*
X154352500Y-82210000D01*
X154632500Y-82490000D01*
G37*
%TO.C,U3*%
X158250000Y-81080000D02*
X155360000Y-81080000D01*
X155340000Y-86900000D02*
X158650000Y-86900000D01*
X158970000Y-81150000D02*
X158690000Y-81150000D01*
X158690000Y-80870000D01*
X158970000Y-81150000D01*
G36*
X158970000Y-81150000D02*
G01*
X158690000Y-81150000D01*
X158690000Y-80870000D01*
X158970000Y-81150000D01*
G37*
%TD*%
M02*
